<?xml version="1.0" encoding="utf-8"?>
<!-- Generator: Adobe Illustrator 26.3.0, SVG Export Plug-In . SVG Version: 6.00 Build 0)  -->
<svg version="1.1" id="Capa_1" xmlns="http://www.w3.org/2000/svg" xmlns:xlink="http://www.w3.org/1999/xlink" x="0px" y="0px"
	 viewBox="0 0 140 80" style="enable-background:new 0 0 140 80;" xml:space="preserve">
<style type="text/css">
	.st0{fill:#FFFFFF;}
	.st1{fill:#FFEC00;}
	.st2{fill:url(#SVGID_1_);}
	.st3{fill:#6F6F6E;}
	.st4{fill:#490700;}
	.st5{fill:#EE7D00;}
</style>
<g>
	<g>
		<g id="EfectoLogo.psd_1_">
			
				<image style="overflow:visible;enable-background:new    ;" width="8568" height="4968" id="EfectoLogo_00000047042761979696462190000010511128478305380253_" xlink:href="2D5121A4.png"  transform="matrix(1.610306e-02 0 0 1.610306e-02 1.1465 7.637253e-02)">
			</image>
		</g>
		<g>
			<g>
				<path class="st0" d="M63.2,71.1l0.4-0.2c0.2-0.1,0.4-0.4,0.3-0.6c-0.1-0.3-0.2-0.6-0.4-0.8c-0.3-0.3-0.7-0.5-1.1-0.5
					c-0.4,0-0.8,0.2-1.1,0.5c-0.2,0.2-0.4,0.5-0.4,0.8c-0.1-0.2-0.2-0.3-0.4-0.4v0h0c-0.6-0.6-1.2-0.8-2-0.8c-0.8,0-1.5,0.3-2,0.8
					c-0.2,0.2-0.4,0.4-0.5,0.6c-0.1-0.2-0.3-0.4-0.5-0.6c-0.5-0.5-1.2-0.8-2.1-0.8h-0.4c-0.3,0-0.5,0.2-0.5,0.5v2.4l-0.9-2.6
					c-0.1-0.2-0.3-0.3-0.5-0.3h-0.3c-0.2,0-0.4,0.1-0.5,0.3L49.2,72c-0.1-0.2-0.2-0.3-0.3-0.4c-0.2-0.2-0.3-0.3-0.5-0.4l0.4-0.2
					c0.2-0.1,0.4-0.4,0.3-0.6c-0.1-0.3-0.2-0.6-0.4-0.8c-0.3-0.3-0.7-0.5-1.1-0.5c-0.4,0-0.8,0.2-1.1,0.5c-0.3,0.3-0.5,0.7-0.5,1.1
					s0.2,0.8,0.5,1.1c0.3,0.3,0.6,0.5,1,0.6c0.2,0.1,0.3,0.2,0.4,0.3c0.1,0.1,0.1,0.1,0.1,0.2c0,0.1,0,0.2-0.1,0.2
					c-0.1,0.1-0.1,0.1-0.2,0.1c-0.1,0-0.2,0-0.2-0.1c0,0-0.1-0.1-0.1-0.4c0-0.2-0.1-0.3-0.2-0.4c-0.1-0.1-0.3-0.1-0.4,0l-0.6,0.2
					c0,0,0,0,0,0l-1.1-3c-0.1-0.2-0.3-0.3-0.5-0.3h-0.3c-0.2,0-0.4,0.1-0.5,0.3l-1.7,4.6c-0.1,0.2,0,0.3,0.1,0.5
					c0.1,0.1,0.2,0.2,0.4,0.2h0.6c0.2,0,0.4-0.1,0.5-0.3l0.5-1.3h0.5l0.5,1.3c0.1,0.2,0.3,0.3,0.5,0.3h0.6c0.2,0,0.3-0.1,0.4-0.2
					c0,0,0,0,0-0.1c0.3,0.2,0.7,0.3,1.1,0.3c0.4,0,0.7-0.1,1-0.3c0.1,0.1,0.2,0.2,0.4,0.2h0.6c0.2,0,0.4-0.1,0.5-0.3l0.5-1.3H51
					l0.5,1.3c0.1,0.2,0.3,0.3,0.5,0.3h0.6c0,0,0.1,0,0.1,0c0,0,0.1,0,0.1,0h0.4c0.9,0,1.6-0.3,2.1-0.8c0.2-0.2,0.4-0.4,0.5-0.6
					c0.1,0.2,0.3,0.4,0.5,0.6c0.6,0.6,1.2,0.8,2,0.8c0.8,0,1.5-0.3,2-0.8c0.1-0.1,0.1-0.2,0.2-0.2c0.1,0.2,0.2,0.4,0.4,0.5
					c0.4,0.4,0.8,0.6,1.4,0.6c0.5,0,1-0.2,1.4-0.6c0.4-0.4,0.6-0.8,0.6-1.4c0-0.5-0.2-1-0.6-1.4C63.5,71.4,63.4,71.2,63.2,71.1z
					 M61.2,71.9c0.2,0.2,0.6,0.4,0.9,0.6c0.2,0.1,0.3,0.2,0.4,0.3c0.1,0.1,0.1,0.1,0.1,0.2c0,0.1,0,0.2-0.1,0.2
					c-0.1,0.1-0.1,0.1-0.2,0.1c-0.1,0-0.2,0-0.2-0.1c0,0-0.1-0.1-0.1-0.4c0-0.2-0.1-0.3-0.2-0.4c-0.1-0.1-0.2-0.1-0.3-0.1
					c-0.1,0-0.1,0-0.2,0l-0.1,0c0-0.1,0-0.2,0-0.4C61.2,71.9,61.2,71.9,61.2,71.9z M59.6,72c0,0.4-0.1,0.6-0.4,0.9
					c-0.2,0.2-0.5,0.4-0.9,0.4c-0.3,0-0.6-0.1-0.9-0.4c-0.2-0.2-0.4-0.5-0.4-0.9c0-0.4,0.1-0.6,0.4-0.9c0.2-0.2,0.5-0.4,0.9-0.4
					s0.6,0.1,0.9,0.4C59.5,71.3,59.6,71.6,59.6,72z M54.2,72.9c-0.1,0.1-0.2,0.2-0.3,0.2v-2.2c0.1,0.1,0.2,0.1,0.3,0.2
					c0.2,0.2,0.4,0.5,0.4,0.9C54.6,72.4,54.5,72.6,54.2,72.9z"/>
				<path class="st0" d="M69.3,72.4c-0.1-0.3-0.3-0.6-0.6-0.8c-0.1-0.1-0.3-0.1-0.4-0.1c-0.1,0-0.2,0.1-0.3,0.2l-0.1,0.2
					c0,0,0-0.1,0-0.1v-0.6c0-0.1,0-0.2-0.1-0.2l0.3-0.1c0.2-0.1,0.4-0.4,0.3-0.6c-0.1-0.3-0.2-0.6-0.4-0.8c-0.3-0.3-0.7-0.5-1.1-0.5
					c-0.4,0-0.8,0.2-1.1,0.5c-0.3,0.3-0.5,0.7-0.5,1.1c0,0.3,0.1,0.5,0.2,0.7c0,0,0,0-0.1,0.1c0,0,0,0,0,0c-0.4,0.4-0.5,0.9-0.5,1.4
					c0,0.5,0.2,1,0.6,1.4c0.4,0.4,0.8,0.6,1.4,0.6c0.5,0,1-0.2,1.4-0.6c0.1-0.1,0.3-0.3,0.3-0.4c0.2-0.1,0.4-0.3,0.6-0.5
					c0.1-0.2,0.2-0.4,0.2-0.6C69.4,72.6,69.4,72.5,69.3,72.4L69.3,72.4z"/>
				<path class="st0" d="M87.1,71.5c-0.2-0.2-0.3-0.3-0.5-0.4L87,71c0.2-0.1,0.4-0.4,0.3-0.6c-0.1-0.3-0.2-0.6-0.4-0.8
					c-0.3-0.3-0.7-0.5-1.1-0.5c-0.4,0-0.8,0.2-1.1,0.5c-0.3,0.3-0.5,0.7-0.5,1.1c0,0.4,0.2,0.8,0.5,1.1c0.3,0.3,0.6,0.5,1,0.6
					c0.2,0.1,0.3,0.2,0.4,0.3c0.1,0.1,0.1,0.1,0.1,0.2c0,0.1,0,0.2-0.1,0.2c-0.1,0.1-0.1,0.1-0.2,0.1c-0.1,0-0.2,0-0.2-0.1
					c0,0-0.1-0.1-0.1-0.4c0-0.2-0.1-0.3-0.2-0.4c-0.1-0.1-0.3-0.1-0.4,0l-0.6,0.2c0,0,0,0,0,0l-1.1-3c-0.1-0.2-0.3-0.3-0.5-0.3h-0.3
					c-0.2,0-0.4,0.1-0.5,0.3l-1.5,4.2v-2.9h0.6c0.3,0,0.5-0.2,0.5-0.5v-0.6c0-0.3-0.2-0.5-0.5-0.5H78c0,0-0.1,0-0.1,0
					c-0.1,0-0.1,0-0.1,0h-0.6c-0.3,0-0.5,0.2-0.5,0.5v3.5h-1v-3.5c0-0.3-0.2-0.5-0.5-0.5h-0.6c-0.3,0-0.5,0.2-0.5,0.5v2.4L73,69.5
					c-0.1-0.2-0.3-0.3-0.5-0.3h-0.3c-0.2,0-0.4,0.1-0.5,0.3l-1.7,4.6c-0.1,0.2,0,0.3,0.1,0.5c0.1,0.1,0.2,0.2,0.4,0.2h0.6
					c0.2,0,0.4-0.1,0.5-0.3l0.5-1.3h0.5l0.5,1.3c0.1,0.2,0.3,0.3,0.5,0.3h0.6c0,0,0.1,0,0.1,0c0,0,0.1,0,0.1,0h2.3
					c0.1,0,0.1,0,0.2,0c0.1,0,0.1,0,0.2,0h0.6c0.3,0,0.5-0.2,0.5-0.5v-3.5h0.4v3.5c0,0.3,0.2,0.5,0.5,0.5h0.6c0.2,0,0.3-0.1,0.4-0.2
					c0.1,0.1,0.2,0.2,0.4,0.2h0.6c0.2,0,0.4-0.1,0.5-0.3l0.5-1.3h0.5l0.5,1.3c0.1,0.2,0.3,0.3,0.5,0.3h0.6c0.2,0,0.3-0.1,0.4-0.2
					c0,0,0,0,0-0.1c0.3,0.2,0.7,0.3,1.1,0.3c0.5,0,1-0.2,1.4-0.6c0.4-0.4,0.6-0.8,0.6-1.4C87.7,72.4,87.5,71.9,87.1,71.5z"/>
			</g>
			<g>
				<path d="M44.3,69.7l1.7,4.6h-0.6l-0.6-1.6h-1.2l-0.6,1.6h-0.6l1.7-4.6L44.3,69.7L44.3,69.7z M44.5,72.1L44.1,71l-0.4,1.1H44.5z"
					/>
				<path d="M47.5,71.9c-0.3-0.1-0.6-0.3-0.8-0.5s-0.3-0.5-0.3-0.8c0-0.3,0.1-0.5,0.3-0.8c0.2-0.2,0.5-0.3,0.8-0.3
					c0.3,0,0.6,0.1,0.8,0.3c0.1,0.1,0.2,0.3,0.3,0.6L48,70.7c-0.1-0.2-0.1-0.3-0.2-0.3c-0.1-0.1-0.2-0.1-0.3-0.1
					c-0.1,0-0.2,0-0.3,0.1c-0.1,0.1-0.1,0.2-0.1,0.3s0,0.2,0.1,0.3c0.1,0.1,0.3,0.2,0.4,0.3c0.4,0.1,0.7,0.3,0.9,0.6
					c0.3,0.3,0.4,0.6,0.4,1c0,0.4-0.1,0.7-0.4,1c-0.3,0.3-0.6,0.4-1,0.4c-0.4,0-0.7-0.1-1-0.4c-0.2-0.2-0.4-0.5-0.4-0.9l0.6-0.2
					c0,0.3,0.1,0.6,0.3,0.7c0.2,0.2,0.4,0.2,0.6,0.2c0.2,0,0.4-0.1,0.6-0.2c0.2-0.2,0.2-0.4,0.2-0.6c0-0.2-0.1-0.4-0.2-0.6
					C47.9,72.2,47.7,72,47.5,71.9z"/>
				<path d="M50.9,69.7l1.7,4.6h-0.6l-0.6-1.6h-1.2l-0.6,1.6h-0.6l1.7-4.6L50.9,69.7L50.9,69.7z M51.1,72.1L50.7,71l-0.4,1.1H51.1z"
					/>
				<path d="M53.2,69.7c0.8,0,1.3,0.2,1.8,0.6c0.5,0.5,0.7,1,0.7,1.7c0,0.7-0.2,1.2-0.7,1.7c-0.4,0.4-1,0.6-1.8,0.6h-0.4v-4.6H53.2
					L53.2,69.7z M53.4,70.3v3.4c0.5,0,0.9-0.2,1.2-0.5c0.3-0.3,0.5-0.8,0.5-1.2c0-0.5-0.2-0.9-0.5-1.2
					C54.3,70.4,53.9,70.3,53.4,70.3z"/>
				<path d="M60,70.3c0.5,0.5,0.7,1,0.7,1.7s-0.2,1.2-0.7,1.7c-0.5,0.5-1,0.7-1.7,0.7c-0.7,0-1.2-0.2-1.7-0.7
					c-0.5-0.5-0.7-1-0.7-1.7c0-0.7,0.2-1.2,0.7-1.7c0.5-0.5,1-0.7,1.7-0.7C59,69.6,59.6,69.9,60,70.3z M58.3,70.2
					c-0.5,0-0.9,0.2-1.2,0.5c-0.3,0.3-0.5,0.8-0.5,1.2s0.2,0.9,0.5,1.3s0.8,0.5,1.2,0.5c0.5,0,0.9-0.2,1.2-0.5s0.5-0.8,0.5-1.3
					s-0.2-0.9-0.5-1.2C59.3,70.4,58.8,70.2,58.3,70.2z"/>
				<path d="M62.3,71.9c-0.3-0.1-0.6-0.3-0.8-0.5s-0.3-0.5-0.3-0.8c0-0.3,0.1-0.5,0.3-0.8c0.2-0.2,0.5-0.3,0.8-0.3
					c0.3,0,0.6,0.1,0.8,0.3c0.1,0.1,0.2,0.3,0.3,0.6l-0.5,0.2c-0.1-0.2-0.1-0.3-0.2-0.3c-0.1-0.1-0.2-0.1-0.3-0.1
					c-0.1,0-0.2,0-0.3,0.1c-0.1,0.1-0.1,0.2-0.1,0.3s0,0.2,0.1,0.3c0.1,0.1,0.3,0.2,0.4,0.3c0.4,0.1,0.7,0.3,0.9,0.6
					c0.3,0.3,0.4,0.6,0.4,1c0,0.4-0.1,0.7-0.4,1c-0.3,0.3-0.6,0.4-1,0.4c-0.4,0-0.7-0.1-1-0.4c-0.2-0.2-0.4-0.5-0.4-0.9l0.6-0.2
					c0,0.3,0.1,0.6,0.3,0.7c0.2,0.2,0.4,0.2,0.6,0.2c0.2,0,0.4-0.1,0.6-0.2c0.2-0.2,0.2-0.4,0.2-0.6c0-0.2-0.1-0.4-0.2-0.6
					C62.8,72.2,62.6,72,62.3,71.9z"/>
				<path d="M68.8,72.5c0,0.1,0,0.1,0,0.2c0,0.1,0,0.3-0.1,0.4c-0.1,0.2-0.3,0.3-0.5,0.4c0,0.1-0.2,0.3-0.3,0.5
					c-0.3,0.3-0.6,0.4-1,0.4c-0.4,0-0.7-0.1-1-0.4c-0.3-0.3-0.4-0.6-0.4-1c0-0.4,0.1-0.7,0.4-1c0.2-0.2,0.3-0.3,0.5-0.3
					c-0.3-0.3-0.4-0.6-0.4-0.9c0-0.3,0.1-0.5,0.3-0.8c0.2-0.2,0.5-0.3,0.8-0.3c0.3,0,0.6,0.1,0.8,0.3c0.1,0.1,0.2,0.3,0.3,0.6
					l-0.5,0.2c-0.1-0.2-0.1-0.3-0.2-0.3c-0.1-0.1-0.2-0.1-0.3-0.1c-0.1,0-0.2,0-0.3,0.1c-0.1,0.1-0.1,0.2-0.1,0.3
					c0,0.1,0,0.3,0.1,0.4c0.1,0.1,0.2,0.2,0.3,0.2s0.3,0.1,0.5,0.1v0.6l-0.4,0c-0.3,0.1-0.6,0.2-0.8,0.4c-0.2,0.2-0.2,0.4-0.2,0.6
					c0,0.2,0.1,0.4,0.2,0.6c0.2,0.2,0.4,0.2,0.6,0.2c0.2,0,0.5-0.1,0.8-0.4c-0.1,0-0.1-0.1-0.3-0.3c-0.1,0-0.1-0.1-0.1-0.1
					c0,0,0,0-0.1,0h0c0,0,0,0,0,0c0,0,0,0,0,0c0,0,0,0,0,0l-0.5,0.3c0-0.1-0.1-0.1-0.1-0.2c0-0.1,0-0.1,0-0.2c0-0.1,0-0.2,0.1-0.3
					c0.1-0.2,0.2-0.3,0.4-0.3c0.1,0,0.1,0,0.2,0c0.1,0,0.2,0,0.3,0.1c0.1,0,0.2,0.1,0.3,0.3c0.1,0.1,0.2,0.2,0.3,0.2c0,0,0,0,0,0
					c0.1,0,0.1,0,0.2-0.1c0,0,0,0,0-0.1c0-0.1,0-0.1-0.1-0.2l0.3-0.5C68.7,72.2,68.8,72.3,68.8,72.5z"/>
				<path d="M72.6,69.7l1.7,4.6h-0.6L73,72.7h-1.2l-0.6,1.6h-0.6l1.7-4.6L72.6,69.7L72.6,69.7z M72.8,72.1L72.4,71L72,72.1H72.8z"/>
				<path d="M74.5,74.3v-4.6h0.6v4h1.7v0.6L74.5,74.3L74.5,74.3z"/>
				<path d="M77.7,69.7v4.6h-0.6v-4.6L77.7,69.7L77.7,69.7z"/>
				<path d="M79.7,70.3v4h-0.6v-4H78v-0.6h2.8v0.6H79.7L79.7,70.3z"/>
				<path d="M82.5,69.7l1.7,4.6h-0.6l-0.6-1.6h-1.2l-0.6,1.6h-0.6l1.7-4.6L82.5,69.7L82.5,69.7z M82.7,72.1L82.3,71l-0.4,1.1H82.7z"
					/>
				<path d="M85.7,71.9c-0.3-0.1-0.6-0.3-0.8-0.5c-0.2-0.2-0.3-0.5-0.3-0.8c0-0.3,0.1-0.5,0.3-0.8s0.5-0.3,0.8-0.3
					c0.3,0,0.6,0.1,0.8,0.3c0.1,0.1,0.2,0.3,0.3,0.6l-0.5,0.2c-0.1-0.2-0.1-0.3-0.2-0.3c-0.1-0.1-0.2-0.1-0.3-0.1
					c-0.1,0-0.2,0-0.3,0.1c-0.1,0.1-0.1,0.2-0.1,0.3s0,0.2,0.1,0.3c0.1,0.1,0.3,0.2,0.4,0.3c0.4,0.1,0.7,0.3,0.9,0.6
					c0.3,0.3,0.4,0.6,0.4,1c0,0.4-0.1,0.7-0.4,1c-0.3,0.3-0.6,0.4-1,0.4c-0.4,0-0.7-0.1-1-0.4c-0.2-0.2-0.4-0.5-0.4-0.9l0.6-0.2
					c0,0.3,0.1,0.6,0.3,0.7c0.2,0.2,0.4,0.2,0.6,0.2c0.2,0,0.4-0.1,0.6-0.2c0.2-0.2,0.2-0.4,0.2-0.6c0-0.2-0.1-0.4-0.2-0.6
					C86.2,72.2,86,72,85.7,71.9z"/>
			</g>
			<path d="M109.4,29.8c-2.3-2.6-5.5-4.9-9.7-6.9c-8.5-4.1-19.8-6.4-31.8-6.4c-12,0-23.3,2.3-31.8,6.4c-4.1,2-7.4,4.3-9.7,6.9
				c-2.4,2.7-3.5,5.5-3.5,8.5c0,2.9,1.2,5.8,3.5,8.5c2.3,2.6,5.5,4.9,9.7,6.9c8.5,4.1,19.8,6.4,31.8,6.4c12,0,23.3-2.3,31.8-6.4
				c4.1-2,7.4-4.3,9.7-6.9c2.4-2.7,3.5-5.5,3.5-8.5C112.9,35.4,111.7,32.5,109.4,29.8z"/>
			<path class="st1" d="M110.7,38.3c0,11.4-19.2,20.7-42.8,20.7c-23.6,0-42.8-9.2-42.8-20.7c0-11.4,19.2-20.7,42.8-20.7
				C91.5,17.6,110.7,26.9,110.7,38.3z"/>
			<path d="M94.9,37.4c0,7.5-12.1,13.6-27,13.6s-27-6.1-27-13.6c0-7.5,12.1-13.6,27-13.6C82.8,23.8,94.9,29.9,94.9,37.4z"/>
			
				<linearGradient id="SVGID_1_" gradientUnits="userSpaceOnUse" x1="57.0892" y1="27.6526" x2="78.4434" y2="56.6648" gradientTransform="matrix(1 0 0 -1 0 79.7165)">
				<stop  offset="0" style="stop-color:#8E1315"/>
				<stop  offset="1" style="stop-color:#BD1622"/>
			</linearGradient>
			<path class="st2" d="M93.9,37.4c0,7.2-11.6,13.1-26,13.1c-14.4,0-26-5.9-26-13.1s11.6-13.1,26-13.1
				C82.2,24.3,93.9,30.1,93.9,37.4z"/>
			<g>
				<path d="M130.3,18.7c2-1.7,3.5-4.1,4.3-7.1c0.2-0.7,0-1.2-0.2-1.4c-0.3-0.4-0.7-0.6-1.2-0.6c-0.6,0-1.2,0.4-1.4,0.9
					c-0.4,0.8-1.1,1.6-2.1,2.5c-2.1,1.7-4.7,2.6-7.7,2.6h0c-3.4,0-6.5-1.1-8.5-2.1l0,0c-2.2-1-4.1-2.3-6.1-3.6
					c-1.9-1.3-3.8-2.6-6-3.6l-0.1,0l-0.1,0c-1.1-0.4-2.1-0.5-3.2-0.5c-1.8,0-3.4,0.5-4.8,1.5l-0.1,0.1c-2.7,2.3-3.6,5.9-4.4,9l0,0
					c-0.1,0.5-0.3,1.1-0.4,1.7l0,0.1c-0.5,2.3-1.5,4.4-2.5,6.4l0,0c-0.5,1.1-1.1,2.3-1.5,3.5c-1.7,3.9-1.1,7.4,1.5,9.4
					c1.1,0.9,2.5,1.3,3.9,1.3c1.6,0,3.2-0.6,4.4-1.7c0,0,0,0,0.1,0l0,0c0.7,0.5,1.5,1,2.2,1.4c1.5,1.1,4,1.9,6.3,2.5
					c0.3,0.1,0.6,0.2,0.7,0.2l0.1,0l0.1,0c1.4,0.2,2.7,0.3,4,0.3c2.9,0,5.6-0.6,8.1-1.8c0.8-0.3,1-1,1-1.6c0-0.1,0-0.2-0.1-0.3
					c2.7-0.3,5-1.1,7-2.3c0.7-0.4,1.3-1.1,1.1-2c-0.1-0.5-0.6-1.1-1.5-1.1c2.9-0.9,5.3-2.2,7-4c0.4-0.4,0.5-1,0.3-1.6
					c-0.2-0.5-0.7-0.9-1.3-0.9c-0.1,0-0.3,0-0.4,0l-0.1,0c-0.4,0.1-0.8,0.2-1.3,0.3c0.8-0.4,1.7-0.9,2.4-1.4l0.1-0.1
					c0.1-0.1,0.2-0.2,0.3-0.3l0,0c1.2-1,2.5-2.1,3.2-3.7l0,0c0.2-0.5,0.1-1.1-0.1-1.5c-0.3-0.5-1-0.8-1.6-0.6l-0.1,0l-0.1,0.1
					c-0.7,0.4-1.5,0.7-2.3,0.9C129.5,19.3,129.9,19,130.3,18.7L130.3,18.7z"/>
				<g>
					<path class="st3" d="M129.5,17.7c1.9-1.7,3.2-4,3.9-6.4c0.1-0.3-0.2-0.3-0.3-0.1c-0.6,1.1-1.4,2.1-2.4,3
						c-5.2,4.3-12.3,3.2-17.6,0.7c-4.4-1.9-7.8-5.3-12.2-7.3c-2.2-0.7-4.7-0.7-6.7,0.8c-2.9,2.5-3.5,6.6-4.5,10.1
						c-0.9,3.8-2.9,6.9-4.1,10.1c-1.5,3.6-0.8,6.3,1.1,7.8c2.4,1.8,5.5,1.2,7.2-1.1c0.7,0.5,2.1,1.5,3.2,2.1c1.1,0.7,0,0,0,0
						c1.7,1.3,5.6,2.2,6.7,2.6c3.9,0.6,7.7,0.4,11.3-1.4c0.3-0.1,0.2-0.3,0-0.3c-1.3-0.1-2.6,0.1-3.9-0.3c-1.3-0.3-4.8-1.7-4.7-1.7
						c5.2,0.7,11.6,1.1,16.4-1.9c0.4-0.2,0.7-0.6,0.2-0.6c-2.2,0.4-4.4,0.1-6.6-0.2c-1.5-0.6-5-1.5-6.5-2.4
						c2.8,0.3,7.8,1.2,10.5,0.5c3-0.6,6.4-1.8,8.6-4.2c0.1-0.1,0.1-0.2-0.1-0.2c-1.1,0.3-2.3,0.5-3.5,0.6c-2.4,0-5.1-0.1-7.3-1
						c3.7,0,7.4-0.8,10.8-3.1c1.2-1,2.6-2.1,3.2-3.5c0-0.1,0-0.4-0.2-0.3c-2.9,1.5-6.1,1.7-9.2,1.1
						C125.1,20.6,127.5,19.3,129.5,17.7z"/>
					<path class="st0" d="M103.7,10.6c2.8,2,5.8,3.8,9,5.2c1.6,0.9,3.5,1.3,5.4,1.8c4.2,0.8,8.3,0.3,12.1-2.1
						c-3.1,3.8-8.3,5.3-12.9,4.7c-3.7-0.4-7-1.8-10.1-3.1c-2.3-1.2-4.7-2.4-7.3-3.3c0.9-0.5,2-0.3,3-0.6c0.4-0.1,0.1-0.3-0.4-0.3
						c-1.6-0.2-3.3-0.1-4.8,0.5c0.4-0.9,1.3-1.6,2.3-2.2c0.3-0.1,0.2-0.5-0.3-0.3c-3.2,1.2-4.6,4.4-4.8,7.6c-0.2,1.6,0,3.1-0.1,4.7
						c0.2,2.4-0.9,4.9-0.7,7.2c0.5,3.6-2.6,6.2-4.8,5.7c-1.7-0.4-2.6-1.5-2.9-2.8c-0.6-3,1.1-5.6,1.9-8.4c1.5-3.2,2.9-7.5,4-11.4
						c0.7-2,1.6-4.1,3.7-5.1C98.8,7.6,101.6,9.2,103.7,10.6z"/>
					<path class="st3" d="M95.8,10.9c-2.9,3.1-2.4,7.5-3.6,11.3c-0.9,2.7-2.3,5.1-3.2,7.5c-0.5,1.6-0.2,3.1,0.4,4.5
						c0.1,0.2,0,0.2-0.2,0.3c-1.3-0.5-1.6-2.1-1.6-3.3c0.2-2.7,1.7-4.9,2.5-7.4c1.1-3.6,1.8-8.3,4.2-11.8
						C95.4,10.3,96.5,10.1,95.8,10.9z"/>
					<path class="st0" d="M99,15c3.7,1.3,7.4,3.4,11,4.8c1.5,1.5,2.7,2.6,4.6,3.5c-4.6,1.7-9.2-0.6-12.9-2.6c-1.6-1-3.6-2.2-5.5-2.6
						c0.1-1,0.1-2.3,1-3.1C97.7,14.7,98.4,14.9,99,15z"/>
					<path class="st3" d="M104.6,13.6c4,1.6,7.3,4.3,11.7,5.1c1.4,0.1,2.6,0.5,4.3,0.4c0.3,0,0.3-0.3,0-0.3l-3.1-0.5
						c-4.9-0.8-8.3-4-13-4.9C104.1,13.3,104.3,13.5,104.6,13.6z"/>
					<path class="st0" d="M101.7,21.9c1.7,0.9,3.5,1.7,5.5,2.3c1,1.4,2.4,2.3,3.8,3.2c-3.5,0.5-7.4-0.3-10.3-2
						c-1.6-0.8-2.9-1.8-4.6-2.4c-0.1-1.1,0-2.2,0-3.3C98.3,19.8,99.9,21.1,101.7,21.9z"/>
					<path class="st0" d="M104.6,28.1c0.8,1.4,1.9,2.1,3.1,3c-4.3,1.4-8.9-1-11.8-3.5l-0.1-2.8C98.5,25.4,101.8,27.4,104.6,28.1z"/>
					<path class="st0" d="M99.4,31.2c0.7,1.3,2.9,3.5,2.9,3.5c-2.3,0.5-5.7-0.9-7.3-1.9c0.2-1.1,0.5-2.2,0.2-3.6
						C96.2,29.5,98.5,30.6,99.4,31.2z"/>
					<path class="st0" d="M116.7,23c-1.5-0.5-2.8-1.3-3.9-2.3c3.9,1.2,8.6,2.4,12.8,1.8c1.7-0.3,3.3-0.3,4.9-1
						c-2.1,2.4-5.5,3.3-8.4,3.8c-2.9,0.3-7.4,0.4-10.3-0.6C113.7,24.6,115.5,24,116.7,23z"/>
					<path class="st0" d="M114.6,27.1c3.7,1.4,8.2,1.9,12.1,1.3c-2.5,1.7-5.3,2.1-8.1,2.4c-3.8,0.3-9-0.1-12.2-2.2l-0.3-0.2
						c0.7,0,1.5,0.1,2.1,0.1c1.3-0.2,3.3-0.2,4.5-1c0,0-1.9-1.3-2.6-2.2C111.7,25.8,113.1,26.6,114.6,27.1z"/>
					<path class="st0" d="M102.5,35.4c1.9,1.4,4,2.7,6.6,3.2l2.1,0.4l-0.3,0.1c-5.4,0.8-12.3-1.3-15.7-4.7
						C97.1,35.2,100.4,35.9,102.5,35.4z"/>
					<path d="M122.4,18.9c0,0.2-0.4,0.3-0.7,0.2c-0.4,0-0.4-0.2-0.2-0.3C121.8,18.7,122.3,18.6,122.4,18.9z"/>
					<path class="st0" d="M108.3,31.7c3.7,1.9,7.9,3.1,12.4,3c-2.3,1.1-4.8,1.1-7.2,1.2c-4.2-0.1-9.5-1-12.4-3.9
						C103.3,32.3,106.3,32.7,108.3,31.7z"/>
					<path class="st3" d="M96.9,10.2c0.1-0.1,0.1-0.3,0-0.3c-0.1-0.1-0.3,0-0.4,0.1c-0.1,0.1-0.1,0.3,0,0.3
						C96.6,10.3,96.8,10.3,96.9,10.2z"/>
				</g>
			</g>
			<g>
				<path d="M55.9,26.8c-0.5-1.2-1-2.3-1.5-3.5c-1-2-1.9-4.1-2.5-6.4l0-0.1c-0.1-0.5-0.3-1-0.4-1.6l0-0.1c-0.8-3.1-1.7-6.7-4.4-9
					L46.9,6c-1.4-1-3-1.5-4.8-1.5c-1,0-2.1,0.2-3.2,0.5l-0.1,0l-0.1,0c-2.2,1-4.1,2.4-6,3.6l0,0c-2,1.4-3.9,2.7-6.1,3.6l0,0
					c-2,0.9-5.1,2.1-8.5,2.1c-3,0-5.6-0.9-7.7-2.6c-1-0.9-1.6-1.7-2.1-2.5C8.1,8.8,7.5,8.4,6.9,8.4C6.5,8.4,6,8.6,5.8,9
					c-0.2,0.2-0.4,0.7-0.2,1.4c0.8,2.9,2.3,5.3,4.3,7.1l0,0c0.4,0.3,0.8,0.7,1.3,1c-0.8-0.2-1.6-0.5-2.3-0.9l-0.1-0.1l-0.2,0
					c-0.6-0.1-1.3,0.1-1.6,0.6c-0.3,0.4-0.3,1-0.1,1.5l0,0c0.7,1.6,2,2.7,3.2,3.7l0.1,0c0.1,0.1,0.2,0.2,0.3,0.3l0.1,0.1
					c0.8,0.5,1.6,1,2.4,1.4c-0.5-0.1-0.9-0.2-1.3-0.3l-0.1,0c-0.1,0-0.3,0-0.4,0c-0.6,0-1.1,0.3-1.3,0.9c-0.2,0.5-0.1,1.1,0.3,1.6
					c1.7,1.8,4.1,3.2,7,4c-0.9,0-1.4,0.6-1.5,1.1c-0.2,0.9,0.5,1.6,1.1,2c2,1.2,4.2,1.9,7,2.3c0,0.1-0.1,0.2-0.1,0.3
					c-0.1,0.5,0.2,1.3,1,1.6c2.4,1.2,5.1,1.8,8.1,1.8c1.3,0,2.6-0.1,4-0.3l0.1,0l0.1,0c0.2-0.1,0.5-0.1,0.7-0.2
					c2.3-0.6,4.8-1.4,6.3-2.5c0.7-0.4,1.5-1,2.2-1.5c0,0,0,0,0.1,0c1.2,1.1,2.8,1.7,4.4,1.7c1.4,0,2.7-0.5,3.9-1.3
					C57,34.2,57.5,30.7,55.9,26.8z"/>
				<g>
					<path class="st3" d="M10.7,16.4c-1.9-1.7-3.2-4-3.9-6.4C6.7,9.7,7.1,9.7,7.1,9.9c0.6,1.1,1.4,2.1,2.4,3
						c5.2,4.3,12.3,3.2,17.6,0.7c4.4-1.9,7.8-5.3,12.2-7.3c2.2-0.7,4.7-0.7,6.7,0.8c2.9,2.5,3.5,6.6,4.5,10.1
						c0.9,3.8,2.9,6.9,4.1,10.1c1.5,3.6,0.8,6.3-1.1,7.8c-2.3,1.8-5.5,1.2-7.2-1.1c-0.7,0.5-2.1,1.5-3.2,2.1c-1.1,0.7,0,0,0,0
						c-1.7,1.3-5.6,2.2-6.7,2.6c-3.9,0.6-7.7,0.4-11.3-1.4c-0.3-0.1-0.2-0.3,0-0.3c1.3-0.1,2.6,0.1,3.9-0.3c1.3-0.3,4.8-1.7,4.7-1.7
						c-5.2,0.7-11.6,1.1-16.4-1.9c-0.4-0.2-0.7-0.6-0.2-0.6c2.2,0.4,4.4,0.1,6.6-0.2c1.5-0.6,5-1.5,6.5-2.4
						c-2.8,0.3-7.8,1.2-10.5,0.5c-3-0.6-6.4-1.8-8.6-4.2C11,26.1,11,26,11.2,26.1c1.1,0.3,2.3,0.5,3.5,0.6c2.4,0,5.1-0.1,7.3-1
						c-3.7,0-7.4-0.8-10.8-3.1c-1.2-1-2.6-2.1-3.2-3.5c-0.1-0.1,0-0.4,0.2-0.3c2.9,1.5,6.1,1.7,9.2,1.1C15.1,19.4,12.7,18,10.7,16.4
						z"/>
					<path class="st0" d="M36.5,9.4c-2.8,2-5.8,3.8-9,5.2c-1.6,0.9-3.5,1.3-5.4,1.8c-4.2,0.8-8.3,0.3-12.1-2.1
						c3.1,3.8,8.3,5.3,12.9,4.7c3.7-0.4,7-1.8,10.1-3.1c2.3-1.2,4.7-2.4,7.3-3.3c-0.9-0.5-2-0.3-3-0.6c-0.4-0.1-0.1-0.3,0.4-0.3
						c1.6-0.2,3.3-0.1,4.8,0.5c-0.4-0.9-1.3-1.6-2.3-2.2c-0.3-0.1-0.2-0.5,0.3-0.3c3.2,1.2,4.6,4.4,4.8,7.6c0.2,1.6,0,3.1,0.1,4.7
						c-0.2,2.4,0.9,4.9,0.7,7.2c-0.5,3.6,2.6,6.2,4.8,5.7c1.7-0.4,2.6-1.5,2.9-2.8c0.6-3-1.1-5.6-1.9-8.4c-1.5-3.2-2.9-7.5-4-11.4
						c-0.7-2-1.6-4.1-3.7-5.1C41.3,6.3,38.6,8,36.5,9.4z"/>
					<path class="st3" d="M44.4,9.6c2.9,3.1,2.4,7.5,3.6,11.3c0.9,2.7,2.3,5.1,3.2,7.5c0.5,1.6,0.2,3.1-0.4,4.5
						c-0.1,0.2,0,0.2,0.2,0.3c1.3-0.5,1.6-2.1,1.6-3.3c-0.2-2.7-1.7-4.9-2.5-7.4c-1.1-3.6-1.8-8.3-4.2-11.8
						C44.7,9.1,43.7,8.9,44.4,9.6z"/>
					<path class="st0" d="M41.2,13.8c-3.7,1.3-7.4,3.4-11,4.8c-1.5,1.5-2.7,2.6-4.6,3.5c4.6,1.7,9.2-0.6,12.9-2.6
						c1.6-1,3.6-2.2,5.5-2.6c-0.1-1-0.1-2.3-1-3.1C42.4,13.5,41.8,13.7,41.2,13.8z"/>
					<path class="st3" d="M35.6,12.4c-4,1.6-7.3,4.3-11.8,5.1c-1.4,0.1-2.6,0.5-4.3,0.4c-0.3,0-0.3-0.3,0-0.3l3.1-0.5
						c4.9-0.8,8.3-4,13-4.9C36.1,12.1,35.9,12.2,35.6,12.4z"/>
					<path class="st0" d="M38.5,20.7C36.8,21.6,35,22.4,33,23c-1,1.4-2.4,2.3-3.8,3.2c3.5,0.5,7.4-0.3,10.3-2
						c1.6-0.8,2.9-1.8,4.6-2.4c0.1-1.1,0-2.2,0-3.3C41.9,18.6,40.3,19.8,38.5,20.7z"/>
					<path class="st0" d="M35.6,26.8c-0.8,1.4-1.9,2.1-3.1,3c4.3,1.4,8.9-1,11.8-3.5l0.1-2.8C41.7,24.2,38.4,26.2,35.6,26.8z"/>
					<path class="st0" d="M40.8,29.9c-0.7,1.3-2.9,3.5-2.9,3.5c2.3,0.5,5.7-0.9,7.3-1.9c-0.2-1.1-0.5-2.2-0.2-3.6
						C44,28.3,41.7,29.4,40.8,29.9z"/>
					<path class="st0" d="M23.5,21.8c1.5-0.5,2.8-1.3,3.9-2.3c-3.9,1.2-8.6,2.4-12.8,1.8c-1.7-0.3-3.3-0.3-4.9-1
						c2.1,2.4,5.5,3.3,8.4,3.8c2.9,0.3,7.4,0.4,10.3-0.6C26.5,23.3,24.7,22.8,23.5,21.8z"/>
					<path class="st0" d="M25.6,25.9c-3.7,1.4-8.2,1.9-12.1,1.3c2.5,1.7,5.3,2.1,8.1,2.4c3.8,0.3,9-0.1,12.2-2.2l0.3-0.2
						c-0.7,0-1.5,0.1-2.1,0.1c-1.3-0.2-3.3-0.2-4.5-1c0,0,1.9-1.3,2.6-2.2C28.4,24.6,27.1,25.3,25.6,25.9z"/>
					<path class="st0" d="M37.7,34.1c-1.9,1.4-4,2.7-6.6,3.2L29,37.7l0.3,0.1c5.4,0.8,12.3-1.3,15.7-4.7
						C43.1,34,39.8,34.7,37.7,34.1z"/>
					<path d="M17.8,17.6c0,0.2,0.4,0.3,0.7,0.2c0.4,0,0.4-0.2,0.2-0.3C18.4,17.5,17.9,17.4,17.8,17.6z"/>
					<path class="st0" d="M31.9,30.5c-3.7,1.9-7.9,3.1-12.4,3c2.3,1.1,4.8,1.1,7.2,1.2c4.2-0.1,9.5-1,12.4-3.9
						C36.9,31.1,33.9,31.5,31.9,30.5z"/>
					<path class="st3" d="M43.3,8.9c-0.1-0.1-0.1-0.3,0-0.3c0.1-0.1,0.3,0,0.4,0.1c0.1,0.1,0.1,0.3,0,0.3C43.6,9.1,43.4,9,43.3,8.9z
						"/>
				</g>
			</g>
			<path d="M95.2,61.8c0.9-1.7,1.3-3.6,1.3-5.5c0-6.8-5.3-12.2-12.2-12.2c-3.7,0-7.1,1.6-9.4,4.4c-1.5-2.5-4.2-4-7.5-4h-9.9v1.8
				c-1.5-1.2-3.5-1.8-5.5-1.8h-9.9v23.6h10.4c1.8,0,3.6-0.5,5-1.4v1.4h10.4c3,0,5.8-1.4,7.3-3.6c2.3,2.5,5.6,4,9.1,4
				c1.2,0,2.3-0.2,3.4-0.5l6.1,6.4l0,0L101,68L95.2,61.8z"/>
			<path class="st1" d="M94.1,61.9c1-1.7,1.5-3.6,1.5-5.7C95.6,50,90.6,45,84.3,45c-4.1,0-7.7,2.1-9.6,5.3c-0.9-2.9-3.7-5-7.3-5
				h-8.9v3.2c-1.3-1.9-3.6-3.2-6.4-3.2h-8.9v21.8h9.5c2.4,0,4.5-0.9,5.9-2.4v2.4h9.5c3.3,0,6-1.8,7.1-4.4c2,2.9,5.4,4.7,9.2,4.7
				c1.3,0,2.5-0.2,3.7-0.6l5.9,6.2l5.8-5.2L94.1,61.9z"/>
			<g>
				<path class="st0" d="M57.5,55.8c0.7-0.9,1.1-2.1,1.1-3.4c0-3.5-2.7-6-6.5-6h-7.9v19.7h8.4c3.9,0,6.7-2.6,6.7-6.1
					C59.2,58.3,58.6,56.9,57.5,55.8z M52.1,53.4h-2V52h2c0.6,0,0.7,0.4,0.7,0.7C52.8,53.2,52.5,53.4,52.1,53.4z M53.4,59.7
					c0,0.5-0.3,0.8-0.8,0.8H50v-1.7h2.6C53.1,58.8,53.4,59.1,53.4,59.7z"/>
				<path class="st0" d="M92.7,62.1c1.2-1.7,1.8-3.7,1.8-5.8c0-5.7-4.5-10.2-10.2-10.2c-5.7,0-10.2,4.5-10.2,10.2
					c0,0.6,0,1.2,0.1,1.7c-0.3-0.8-0.8-1.5-1.4-2.1c0.7-0.9,1.1-2.1,1.1-3.4c0-3.5-2.7-6-6.5-6h-7.9v19.7h8.4c3.9,0,6.7-2.6,6.7-6.1
					c0-0.2,0-0.5,0-0.7c1.3,4.2,5.1,7.2,9.8,7.2c1.4,0,2.7-0.3,4-0.8l5.6,6l4.3-3.8L92.7,62.1z M65.4,58.8h2.6
					c0.7,0,0.8,0.6,0.8,0.8c0,0.3-0.1,0.8-0.8,0.8h-2.6V58.8z M67.4,53.4h-2V52h2c0.6,0,0.7,0.4,0.7,0.7
					C68.1,53.2,67.9,53.4,67.4,53.4z M88.7,56.3c0,0.4-0.1,0.9-0.2,1.3L86,54.9l-4.3,3.8l1.9,2c-2.2-0.3-3.6-2-3.6-4.4
					c0-2.6,1.8-4.4,4.3-4.4C86.9,51.8,88.7,53.6,88.7,56.3z"/>
			</g>
			<g>
				<path class="st4" d="M58.4,60c0,3.2-2.6,5.2-5.8,5.2h-7.5V47.3h7c3.1,0,5.7,2,5.7,5.1c0,1.5-0.6,2.7-1.6,3.5
					C57.5,56.8,58.4,58.2,58.4,60z M49.2,51.1v3.2h2.9c0.9,0,1.6-0.7,1.6-1.6s-0.6-1.6-1.6-1.6L49.2,51.1L49.2,51.1z M54.3,59.7
					c0-1-0.7-1.7-1.7-1.7h-3.4v3.4h3.4C53.6,61.4,54.3,60.7,54.3,59.7z"/>
				<path class="st4" d="M73.7,60c0,3.2-2.6,5.2-5.8,5.2h-7.5V47.3h7c3.1,0,5.7,2,5.7,5.1c0,1.5-0.6,2.7-1.6,3.5
					C72.9,56.8,73.7,58.2,73.7,60z M64.5,51.1v3.2h2.9c0.9,0,1.6-0.7,1.6-1.6s-0.6-1.6-1.6-1.6L64.5,51.1L64.5,51.1z M69.6,59.7
					c0-1-0.7-1.7-1.7-1.7h-3.4v3.4h3.4C69,61.4,69.6,60.7,69.6,59.7z"/>
				<path class="st4" d="M91.6,62.1l5.4,5.7L94,70.5l-5.5-5.9c-1.3,0.6-2.7,1-4.2,1c-5.1,0-9.3-4-9.3-9.3s4.2-9.3,9.3-9.3
					c5.1,0,9.3,4,9.3,9.3C93.6,58.5,92.9,60.5,91.6,62.1z M85.6,61.5L83,58.7l2.9-2.6l2.9,3c0.5-0.8,0.7-1.8,0.7-2.9
					c0-3.2-2.3-5.3-5.2-5.3c-2.9,0-5.2,2.1-5.2,5.3c0,3.2,2.3,5.3,5.2,5.3C84.7,61.6,85.2,61.5,85.6,61.5z"/>
			</g>
			<g>
				<path d="M115.6,44.6c0.2-1.1-0.1-2.3-0.8-3.1c0,0,0,0,0,0c-0.3-0.3-0.7-0.6-1-0.8c0-0.2,0-0.5,0-0.7c0,0,0,0,0,0
					c-0.1-0.8-0.4-1.6-1-2.2c0,0,0,0,0,0c-0.3-0.4-0.7-0.7-1.2-0.9c-0.3-0.1-0.6-0.3-1-0.4c-0.3-0.1-0.5-0.2-0.8-0.3
					c-0.5-0.2-1-0.2-1.4-0.2c-0.4,0-0.7,0.1-1.1,0.2c-0.2-0.2-0.4-0.5-0.6-0.7c-0.4-0.3-0.8-0.6-1.3-0.7c-0.1,0-0.2-0.1-0.3-0.1
					c-0.2,0-0.5-0.1-0.7-0.1c0,0,0,0-0.1,0c-0.3,0-0.5-0.1-0.8-0.1c-0.2,0-0.4,0-0.7,0.1c-0.1-0.1-0.3-0.1-0.4-0.2
					c-0.8-0.3-1.7-0.4-2.6-0.4c-0.7,0.1-1.4,0.3-2.1,0.6c-0.2-0.4-0.4-0.7-0.7-1c-0.6-0.8-1.5-1.3-2.6-1.5c-0.3-0.1-0.6-0.1-1-0.1
					c0.3-0.5,0.7-1.3,0.6-2.5c0-0.6-0.2-1.3-0.5-2c-0.3-0.6-0.7-1.2-1.2-1.7c-0.6-0.6-1.3-1-2-1.2c-0.8-0.3-1.7-0.3-2.6-0.2
					c0,0,0,0,0,0c-1.1,0.1-2.1,0.5-3.1,1.2c-0.8,0.5-1.6,1.2-2.4,2c-0.5,0.5-1,1.1-1.5,1.7c-0.1-0.5-0.3-1-0.5-1.5
					c-0.2-0.6-0.6-1.2-1.1-1.7c-0.4-0.4-1-0.7-1.5-1c-0.5-0.2-1-0.3-1.5-0.3c-0.1,0-0.1,0-0.2,0c-0.5,0-1,0-1.5,0.2
					c-0.4,0.1-0.8,0.3-1.1,0.6c-0.2-0.2-0.5-0.4-0.7-0.6c-0.7-0.5-1.5-0.8-2.3-0.8c-0.7-0.1-1.5,0-2.2,0.1c-0.7,0.2-1.3,0.5-1.8,0.8
					c-1.2,0.9-1.5,2-1.5,2.6c-0.1,0.6,0.1,1.3,0.4,2c-0.2,0.1-0.4,0.2-0.5,0.3c-0.2-0.1-0.4-0.2-0.6-0.2c-0.4-0.1-0.8-0.2-1.2-0.2
					c-0.1,0-0.2,0-0.3,0c-0.2,0-0.5,0.1-0.7,0.1c0,0-0.1,0-0.1,0c-0.5,0.1-0.9,0.3-1.3,0.5c-0.2-0.1-0.3-0.2-0.5-0.3
					c-0.4-0.2-0.9-0.3-1.4-0.2c-0.1,0-0.2,0-0.3,0c-0.2,0-0.5,0.1-0.7,0.1c-0.1,0-0.1,0-0.2,0.1c-0.2,0.1-0.4,0.1-0.6,0.2
					c-0.2,0.1-0.5,0.2-0.7,0.3c-0.1,0-0.2,0-0.3,0c-0.1,0-0.2,0-0.4,0c0.3-1.8-0.4-3.4-1.8-4.2c0,0,0,0,0,0c-0.9-0.5-2-0.6-3.1-0.2
					c-0.8,0.3-1.5,0.8-2.3,1.5c-0.6,0.6-1.2,1.3-1.8,2.2c-0.5,0.8-1.1,1.8-1.6,2.8c-0.3-0.2-0.7-0.3-1.1-0.5c0,0,0,0-0.1,0
					c-1-0.3-2.1-0.2-3,0.2c0,0-0.1,0-0.1,0c-0.2-0.7-0.5-1.3-0.9-1.9c-0.8-1.2-2-2-3.5-2.5c-1.4-0.4-3.1-0.4-5,0.1
					c-1.6,0.4-3.1,1.1-4.3,2c-1.2,0.9-2.2,1.9-2.9,3c-0.8,1.2-1.2,2.4-1.3,3.7c-0.1,1.5,0.2,2.8,1,3.9c0.4,0.6,1,1.1,1.5,1.4
					c0.1,0,0.2,0.1,0.2,0.1c-0.1,0.3-0.1,0.6-0.2,0.9c0,0.2-0.1,0.4-0.2,0.6c-0.6-0.2-1.3-0.2-1.8,0c-0.1,0-0.2,0.1-0.3,0.1
					c0,0,0,0,0,0c-1,0.5-1.6,1.5-1.8,2.8c-0.1,0.5-0.1,1.1,0,1.7c0.1,0.7,0.3,1.3,0.6,1.9c0.3,0.6,0.7,1.2,1.2,1.6
					c0.6,0.6,1.4,1,2.2,1.1c0.8,0.1,1.5,0.1,2.2-0.2c0.1,0,0.3-0.1,0.4-0.2c0.8-0.3,1.4-0.9,2-1.6c0.5-0.6,1-1.4,1.4-2.3
					c0-0.1,0-0.1,0.1-0.2c0.2,0.2,0.3,0.3,0.5,0.5c0.8,0.8,1.6,1.5,2.5,2.1c1,0.7,2.1,1.1,3.2,1.3c0.6,0.1,1.3,0.1,1.8-0.1
					c0.2,0,0.3-0.1,0.5-0.1c0.7-0.2,1.2-0.6,1.8-1c0.5-0.4,1-0.9,1.3-1.4c0.4-0.6,0.7-1.1,0.8-1.7c0.3-1,0.3-2-0.1-2.8
					c0.1-0.1,0.2-0.1,0.3-0.2c0.4-0.2,0.7-0.5,1.1-0.8c0.8,0.5,1.7,0.7,2.6,0.6c0.7-0.1,1.5-0.4,2.1-0.9c0.2-0.1,0.4-0.3,0.6-0.4
					c0.8,0.5,1.7,0.7,2.6,0.5c0.7-0.1,1.3-0.3,1.8-0.6c0.6,0.2,1.2,0.3,1.8,0.2c0.5,0,1-0.2,1.6-0.5c0.2,0.1,0.4,0.2,0.7,0.3
					c0.4,0.1,0.7,0.2,1.1,0.1c0.1,0,0.3,0,0.4-0.1c0.6-0.1,1.2-0.4,1.7-0.9c0.6,0.3,1.3,0.6,2.2,0.6c0.2,0,0.4,0,0.6-0.1
					c0,0.4,0.1,0.7,0.2,1.1c0.2,0.8,0.7,1.5,1.4,2c0.6,0.4,1.3,0.6,2,0.4c0.1,0,0.1,0,0.2,0c0.7-0.2,1.5-0.5,2.1-0.8
					c0.2,0.2,0.3,0.4,0.5,0.5c0.5,0.3,1,0.5,1.5,0.5c0.1,0,0.3,0,0.4,0c1.1-0.1,2.2-0.5,3.2-1.3c0.9-0.6,1.7-1.3,2.6-2.2
					c0.4-0.4,0.8-0.8,1.1-1.2c0.4,0.7,0.9,1.2,1.5,1.5c0.5,0.3,1,0.5,1.6,0.5c0.5,0.1,1,0,1.6-0.2c0.4,0.3,0.9,0.5,1.5,0.6
					c0.1,0,0.3,0,0.5,0.1c0.7,0.1,1.4-0.1,2-0.5c0.2,0.2,0.5,0.5,0.8,0.6c0.2,0.2,0.5,0.3,0.8,0.4c0,0.4,0.1,0.7,0.2,1.1
					c0.3,0.9,0.8,1.6,1.4,2.2c0.6,0.5,1.3,0.9,2.1,1.2c0.1,0,0.2,0,0.3,0.1c0.7,0.2,1.5,0.2,2.3,0c1.1-0.2,2.2-0.7,3.1-1.4
					c0.4-0.4,0.8-0.8,1.2-1.2c0.2,0,0.5-0.1,0.7-0.1c0.1,0,0.1,0,0.2,0c0,0,0.1,0.1,0.1,0.1c0.6,0.8,1.4,1.3,2.4,1.6
					c1,0.3,2,0.3,2.9,0.1c0.3,0,0.7,0,1,0c0.6,0,1.3-0.1,1.9-0.3c0.6-0.2,1.3-0.4,1.9-0.7c0.7-0.4,1.4-0.9,1.9-1.5
					C115.1,46.1,115.5,45.4,115.6,44.6z"/>
				<path class="st0" d="M114.8,44.4c0.1-0.8,0-1.6-0.5-2.2c0,0,0,0,0,0c-0.4-0.5-1-0.7-1.5-0.8c0.1-0.1,0.1-0.3,0.2-0.5
					c0.1-0.3,0.1-0.6,0.1-1c0,0,0,0,0,0c0-0.6-0.3-1.1-0.7-1.6c0,0,0,0,0,0c-0.2-0.3-0.6-0.5-0.9-0.7c-0.2-0.1-0.5-0.2-0.9-0.3
					c-0.3-0.1-0.5-0.2-0.8-0.3c-0.4-0.1-0.8-0.2-1.1-0.2c-0.4,0-0.8,0.1-1.2,0.3c-0.1,0.1-0.2,0.1-0.4,0.2c-0.1-0.5-0.4-0.9-0.8-1.2
					c-0.3-0.2-0.6-0.4-1-0.5c-0.1,0-0.2,0-0.2-0.1c-0.2,0-0.4-0.1-0.7-0.1c0,0,0,0,0,0c-0.2,0-0.5,0-0.7,0c-0.3,0-0.5,0-0.8,0.1
					c-0.2-0.1-0.4-0.2-0.6-0.3c-0.7-0.3-1.4-0.4-2.2-0.3c-0.7,0.1-1.4,0.3-2.1,0.6c-0.2,0.1-0.5,0.2-0.7,0.4
					c-0.1-0.7-0.3-1.3-0.8-1.8c-0.5-0.6-1.2-1-2.1-1.2c-0.5-0.1-1-0.1-1.5,0c-0.3-0.2-0.7-0.4-1.2-0.4c0,0-0.1,0-0.1,0
					c-0.2,0-0.3,0-0.5,0c0-0.1,0-0.2,0-0.3c0.6,0,1.2-0.3,1.6-0.8c0.3-0.4,0.6-1,0.5-1.9c0-0.5-0.2-1-0.4-1.6c-0.2-0.5-0.6-1-1-1.4
					c-0.5-0.4-1-0.8-1.7-1c-0.6-0.2-1.4-0.3-2.2-0.2c0,0,0,0,0,0c-1,0.1-1.9,0.5-2.8,1c-0.8,0.5-1.5,1.1-2.2,1.9
					c-0.7,0.7-1.3,1.5-1.9,2.3c-0.3,0.4-0.5,0.8-0.8,1.2c0-0.3,0-0.5,0-0.8c-0.1-1-0.3-2-0.7-2.8c-0.2-0.5-0.5-1-0.9-1.3
					c-0.4-0.3-0.8-0.6-1.2-0.8c-0.4-0.2-0.8-0.2-1.2-0.3c0,0-0.1,0-0.1,0c-0.4,0-0.8,0-1.2,0.1c-0.7,0.2-1.1,0.7-1.4,1
					c-0.3-0.5-0.7-0.8-1.2-1.1c-0.6-0.4-1.3-0.6-1.9-0.7c-0.6-0.1-1.2,0-1.8,0.1c-0.6,0.2-1.1,0.4-1.5,0.7c-0.8,0.6-1.1,1.4-1.1,1.9
					c-0.1,0.9,0.3,1.9,1.4,2.4c-0.3,0-0.6,0.1-0.9,0.2c-0.6,0.2-1.1,0.4-1.5,0.8c-0.2-0.2-0.5-0.4-0.8-0.5c-0.4-0.1-0.8-0.2-1.2-0.1
					c-0.2,0-0.4,0.1-0.7,0.1c0,0-0.1,0-0.1,0c-0.7,0.2-1.1,0.5-1.5,0.8c-0.2-0.3-0.5-0.5-0.8-0.6c-0.3-0.1-0.7-0.2-1.1-0.2
					c-0.1,0-0.2,0-0.2,0c-0.2,0-0.4,0.1-0.7,0.1c0,0-0.1,0-0.1,0c-0.2,0.1-0.4,0.1-0.6,0.2c-0.3,0.1-0.6,0.2-0.8,0.4
					c-0.2,0-0.4-0.1-0.6-0.1c-0.5-0.1-1,0-1.5,0.1c0.1-0.2,0.2-0.5,0.2-0.7c0.5-1.9-0.3-3.2-1.3-3.8c0,0,0,0,0,0
					c-0.5-0.3-1.1-0.4-1.7-0.3c-0.2,0-0.5,0.1-0.7,0.2c-0.7,0.2-1.3,0.6-2,1.3c-0.6,0.5-1.1,1.2-1.7,2.1c-0.5,0.8-1.1,1.8-1.6,2.9
					c-0.1,0.3-0.3,0.6-0.4,0.9c0,0,0,0,0,0c-0.4-0.5-1-0.8-1.7-1c0,0,0,0,0,0c-0.8-0.2-1.7-0.1-2.5,0.2c-0.4,0.2-0.7,0.4-1,0.6
					c-0.1-1-0.5-1.9-1-2.7c-0.7-1-1.7-1.7-3.1-2.1c-1.3-0.4-2.8-0.3-4.5,0.1c-1.5,0.4-2.8,1-3.9,1.9c-1.1,0.8-2,1.7-2.6,2.7
					c-0.7,1-1,2.1-1.1,3.2c-0.1,1.2,0.2,2.3,0.8,3.2c0.4,0.5,0.8,0.9,1.2,1.1c0.3,0.2,0.6,0.3,0.8,0.4c-0.1,0.7-0.2,1.3-0.4,1.8
					c-0.1,0.2-0.1,0.5-0.2,0.7c-0.1,0.2-0.1,0.5-0.2,0.7c-0.1,0.2-0.1,0.3-0.2,0.5c0,0,0,0,0,0.1c-0.8-0.9-1.7-0.7-2-0.6
					c-0.1,0-0.1,0.1-0.2,0.1c-0.4,0.2-1.1,0.7-1.2,2c-0.1,0.4,0,0.9,0,1.4c0.1,0.6,0.3,1.1,0.5,1.6c0.3,0.5,0.6,1,1,1.4
					c0.5,0.5,1.1,0.8,1.8,0.9c0.6,0.1,1.2,0.1,1.8-0.1c0.1,0,0.2-0.1,0.3-0.1c0.6-0.3,1.2-0.7,1.7-1.4c0.5-0.6,0.9-1.2,1.2-2
					c0.2-0.5,0.4-1,0.5-1.6c0.4,0.5,0.9,1.1,1.4,1.6c0.7,0.8,1.5,1.4,2.4,2c0.9,0.6,1.9,1,2.9,1.1c0.5,0.1,1.1,0,1.6-0.1
					c0.1,0,0.3-0.1,0.4-0.1c0.6-0.2,1.1-0.5,1.5-0.9c0.4-0.4,0.8-0.8,1.1-1.2c0.3-0.5,0.5-0.9,0.7-1.4c0.3-0.9,0.2-1.8-0.3-2.5
					c-0.1-0.2-0.2-0.3-0.4-0.4c0.5-0.2,0.9-0.4,1.4-0.6c0.5-0.3,1-0.7,1.5-1.1c0,0,0.1,0.1,0.1,0.1c0.7,0.6,1.5,0.8,2.4,0.7
					c0.6-0.1,1.2-0.4,1.8-0.7c0.3-0.2,0.7-0.5,1-0.8c0.1,0,0.1,0.1,0.2,0.1c0.7,0.5,1.5,0.7,2.4,0.6c0.7-0.1,1.3-0.3,1.8-0.7
					c0.5,0.3,1.2,0.4,1.8,0.3c0.5,0,1.1-0.3,1.7-0.7c0.2,0.2,0.5,0.4,0.8,0.5c0.3,0.1,0.6,0.1,0.9,0.1c0.1,0,0.2,0,0.3,0
					c0.5-0.1,1-0.4,1.4-0.8c0.1-0.1,0.3-0.3,0.4-0.4c0.5,0.4,1.2,0.9,2.3,0.8c0.6,0,1.1-0.2,1.8-0.6c-0.1,0.2-0.2,0.5-0.2,0.7
					c-0.1,0.6-0.1,1.1,0,1.6c0.2,0.6,0.5,1.1,1,1.4c0.4,0.3,1,0.4,1.5,0.3c0,0,0.1,0,0.1,0c0.9-0.2,1.8-0.6,2.6-1.1
					c0.2,0.4,0.4,0.7,0.8,0.9c0.3,0.2,0.7,0.4,1.1,0.4c0.1,0,0.2,0,0.3,0c1-0.1,1.9-0.5,2.9-1.1c0.8-0.6,1.6-1.3,2.4-2.1
					c0.7-0.7,1.3-1.4,2-2.3c0.1,0.4,0.2,0.7,0.3,1.1c0.3,0.6,0.7,1.1,1.3,1.4c0.4,0.2,0.9,0.4,1.3,0.4c0.5,0.1,1.1,0,1.7-0.3
					c0.4,0.4,0.9,0.6,1.5,0.7c0.2,0,0.3,0,0.5,0.1c0.7,0.1,1.3-0.2,1.8-0.7c0-0.1,0.1-0.1,0.1-0.2c0.3,0.5,0.7,0.9,1.1,1.2
					c0.4,0.2,0.8,0.4,1.2,0.5c0,0.5,0.1,1,0.2,1.5c0.2,0.7,0.6,1.3,1.1,1.8c0.5,0.4,1.1,0.8,1.7,1c0.1,0,0.2,0,0.2,0.1
					c0.6,0.1,1.3,0.1,2,0c1-0.2,1.9-0.6,2.7-1.3c0.5-0.4,0.9-0.8,1.3-1.3c0.3,0,0.6-0.1,1-0.2c0.2-0.1,0.5-0.1,0.7-0.2
					c0.1,0.2,0.2,0.4,0.4,0.6c0.5,0.6,1.1,1.1,1.9,1.3c0.9,0.3,1.8,0.3,2.6,0.1c0.3,0,0.7,0,1.1,0c0.6,0,1.1-0.1,1.7-0.3
					c0.6-0.2,1.2-0.4,1.7-0.7c0.6-0.3,1.2-0.8,1.7-1.3C114.4,45.5,114.7,45,114.8,44.4z M37.7,43.6c0.2,0.4,0.5,0.7,0.8,0.9
					c-0.3-0.1-0.7-0.3-1.1-0.5c-0.7-0.4-1.4-0.8-2-1.3c0.4-0.3,0.8-0.6,1.2-0.9c0.1-0.1,0.2-0.2,0.3-0.3C37,42.2,37.3,43,37.7,43.6z
					 M25.5,45.6c0.4,0.5,0.7,1,1.1,1.6l0,0C26.2,46.6,25.8,46.1,25.5,45.6C25.5,45.6,25.5,45.6,25.5,45.6z"/>
				<g>
					<path d="M113.4,44c0.1-0.4-0.1-0.7-0.2-0.8c-0.2-0.2-0.4-0.3-0.7-0.2c-0.2,0-0.5,0.2-0.7,0.4c-0.2,0.2-0.4,0.4-0.6,0.5
						c-0.3,0.1-0.5,0.3-0.8,0.4c-0.2,0.1-0.5,0.1-0.7,0.2c0.1-0.3,0.2-0.5,0.3-0.8c0.2-0.6,0.4-1.3,0.5-2c0-0.2,0.1-0.3,0.1-0.3
						c0,0,0,0,0.1,0c0.1,0,0.3,0,0.4-0.1c0.2,0,0.4-0.2,0.5-0.7c0-0.1,0.1-0.3,0-0.4c0-0.1-0.1-0.4-0.3-0.6
						c-0.1-0.1-0.3-0.2-0.5-0.3c-0.2-0.1-0.4-0.2-0.7-0.3c-0.3-0.1-0.5-0.2-0.8-0.3c-0.2-0.1-0.5-0.1-0.7-0.1
						c-0.2,0-0.5,0.1-0.7,0.2c-0.2,0.1-0.4,0.2-0.7,0.5c-0.2,0.2-0.6,0.5-0.9,0.8c-0.4,0.3-0.8,0.7-1.3,1.2c0,0,0,0,0,0
						c-0.6,0.5-1.3,1-1.9,1.2c-0.3,0.1-0.5,0.2-0.8,0.3c0.2-0.3,0.4-0.6,0.6-0.8c0.2-0.2,0.4-0.4,0.6-0.6c0.2-0.2,0.4-0.5,0.6-0.7
						c0.2-0.3,0.4-0.5,0.6-0.8c0.2-0.2,0.4-0.5,0.6-0.7c0.2-0.3,0.4-0.5,0.4-0.8c0-0.3-0.1-0.6-0.3-0.8c-0.2-0.1-0.3-0.2-0.6-0.3
						c-0.2,0-0.4-0.1-0.6-0.1c-0.2,0-0.4,0-0.5,0c-0.2,0-0.3,0-0.5,0.1c-0.2,0-0.3,0.1-0.4,0.2c0,0,0,0,0,0
						c-0.3-0.3-0.6-0.5-0.9-0.6c-0.5-0.2-1-0.3-1.6-0.2c-0.6,0-1.1,0.2-1.7,0.5c-0.6,0.3-1.1,0.7-1.6,1.2c-0.3,0.3-0.5,0.5-0.7,0.8
						c-0.2,0.2-0.4,0.4-0.6,0.6c-0.3,0.2-0.6,0.4-0.9,0.6c-0.3,0.2-0.6,0.3-0.8,0.3c-0.1,0-0.2,0.1-0.3,0.1c0.1-0.1,0.2-0.3,0.3-0.5
						c0.2-0.2,0.3-0.4,0.5-0.6c0.5-0.5,0.8-1.1,1.1-1.6c0.3-0.5,0.4-1,0.5-1.5c0-0.5-0.1-1-0.4-1.3c-0.3-0.3-0.7-0.6-1.3-0.7
						c-0.5-0.1-1,0-1.4,0.1c-0.1,0-0.2,0.1-0.3,0.1c-0.1-0.2-0.2-0.5-0.7-0.6c-0.1,0-0.1,0-0.2,0c0,0,0,0,0,0c-0.2,0-0.4,0-0.6,0
						c-0.2,0-0.4,0.1-0.6,0.1c-0.2,0.1-0.4,0.2-0.6,0.4c-0.2,0.2-0.3,0.4-0.5,0.7c-0.1,0.2-0.3,0.5-0.4,0.7
						c-0.2,0.3-0.3,0.5-0.5,0.8c-0.1,0.2-0.2,0.4-0.3,0.6c-0.2,0.2-0.4,0.4-0.6,0.6c-0.3,0.2-0.6,0.5-0.8,0.6
						c-0.3,0.2-0.6,0.3-0.8,0.4c-0.1,0-0.3,0.1-0.4,0.1c0.1-0.1,0.1-0.3,0.2-0.4c0.1-0.2,0.2-0.4,0.4-0.6c0.1-0.2,0.3-0.4,0.5-0.7
						c0.2-0.3,0.3-0.5,0.5-0.8c0.2-0.3,0.4-0.6,0.6-0.8c0.2-0.3,0.4-0.5,0.5-0.8c0.2-0.3,0.3-0.6,0.3-0.8c0-0.2,0-0.4-0.1-0.5
						c0.3-0.1,0.5-0.2,0.8-0.4c0.3-0.2,0.5-0.5,0.6-0.7c0.2-0.3,0.2-0.7,0.1-1.1c0,0,0,0,0,0c-0.1-0.4-0.3-0.7-0.6-0.8
						c-0.1,0-0.1-0.1-0.2-0.1c0,0,0,0,0,0c0.6-0.2,1.2-0.2,1.7,0c0.1,0,0.2,0.1,0.3,0.1c0.3,0,0.5-0.1,0.7-0.3
						c0.2-0.2,0.2-0.5,0.2-0.9c0-0.3-0.1-0.6-0.3-1c-0.2-0.3-0.4-0.7-0.7-1c-0.3-0.3-0.7-0.5-1.1-0.7c-0.5-0.2-1-0.2-1.6-0.1
						c-0.8,0.1-1.5,0.4-2.2,0.8c-0.7,0.4-1.4,1-2,1.7c-0.6,0.6-1.2,1.4-1.8,2.2c-0.6,0.8-1.2,1.6-1.7,2.5c-0.5,0.8-1.1,1.7-1.6,2.5
						c-0.5,0.8-1,1.6-1.5,2.3c-0.1,0.1-0.2,0.3-0.3,0.4c0.1-0.1,0.1-0.2,0.2-0.4c0.4-0.8,0.7-1.7,0.9-2.5c0.3-0.9,0.5-1.8,0.6-2.7
						c0.1-0.9,0.2-1.8,0.1-2.6c-0.1-0.9-0.3-1.6-0.6-2.3c-0.1-0.3-0.3-0.6-0.5-0.8c-0.2-0.2-0.5-0.4-0.8-0.5
						c-0.3-0.1-0.6-0.2-0.8-0.2c-0.3,0-0.6,0-0.8,0.1c-0.3,0.1-0.5,0.3-0.6,0.5c-0.1,0.2-0.2,0.5,0.1,1c0.3,0.6,0.5,1.2,0.6,2
						c0,0.8,0,1.6-0.2,2.5c-0.2,0.9-0.5,1.8-0.9,2.7c-0.4,0.9-0.8,1.7-1.4,2.5c-0.5,0.8-1,1.4-1.6,2c0.3-0.6,0.6-1.2,0.9-1.9
						c0.3-0.8,0.6-1.7,0.9-2.6c0.2-0.9,0.4-1.8,0.5-2.7c0.1-0.9,0.1-1.8,0-2.6c-0.1-0.9-0.3-1.7-0.7-2.3c-0.3-0.6-0.7-1-1.2-1.3
						c-0.5-0.3-0.9-0.5-1.4-0.5c-0.5-0.1-0.9,0-1.3,0.1c-0.4,0.1-0.7,0.3-1,0.4c-0.3,0.2-0.5,0.5-0.5,0.8c0,0.2,0,0.7,0.7,0.9
						c0.4,0.1,0.8,0.4,1,1c0.3,0.6,0.5,1.3,0.7,2.1c0.1,0.8,0.2,1.7,0.2,2.7c0,1-0.1,2-0.3,2.9c-0.2,0.9-0.4,1.8-0.7,2.7
						c-0.3,0.8-0.6,1.5-1,2c0,0,0,0,0,0c-0.2,0.3-0.3,0.5-0.4,0.8c-0.1,0.3-0.1,0.5,0,0.8c0.1,0.3,0.2,0.5,0.4,0.6
						c0.2,0.1,0.4,0.2,0.7,0.1c0,0,0,0,0,0c0.8-0.2,1.5-0.5,2.2-1c0.7-0.4,1.3-1,1.9-1.6c0.4-0.5,0.8-0.9,1.2-1.5
						c-0.3,0.7-0.7,1.4-1,1.8c-0.2,0.2-0.4,0.5-0.4,0.8c-0.1,0.3-0.1,0.5,0,0.8c0.1,0.3,0.2,0.5,0.4,0.6c0.1,0.1,0.3,0.2,0.5,0.2
						c0.1,0,0.1,0,0.2,0c0.8-0.1,1.6-0.4,2.3-0.9c0.7-0.5,1.5-1.2,2.2-1.9c0.7-0.8,1.5-1.6,2.2-2.5c0.7-0.9,1.5-1.9,2.2-2.7
						c0.7-0.9,1.5-1.8,2.2-2.6c0.3-0.4,0.7-0.7,1-1.1c0,0,0,0.1,0,0.1c0,0.2,0.1,0.4,0.3,0.5c-0.2,0-0.3,0.1-0.5,0.2
						c-0.2,0.1-0.3,0.2-0.5,0.4c-0.1,0.2-0.3,0.4-0.4,0.7c-0.1,0.2-0.3,0.5-0.4,0.8c-0.1,0.3-0.3,0.5-0.5,0.8
						c-0.2,0.3-0.3,0.6-0.5,1c-0.2,0.3-0.4,0.7-0.6,1.2c-0.3,0.5-0.4,0.9-0.4,1.3c0,0.4,0,0.8,0.2,1.1c0.2,0.3,0.4,0.6,0.7,0.8
						c0.3,0.2,0.6,0.2,0.9,0.3c0.4,0,0.8,0,1.3-0.3c0.3-0.1,0.6-0.3,0.8-0.4c0,0.3,0.1,0.6,0.2,0.7c0.2,0.2,0.5,0.4,0.9,0.4
						c0.2,0,0.3,0,0.5,0.1c0.3,0,0.5-0.1,0.7-0.3c0.1-0.1,0.3-0.4,0.4-0.7c0.2-0.5,0.6-1,1-1.5s0.8-1.1,1.2-1.6
						c0.4-0.5,0.8-0.9,1.2-1.2c0.2-0.1,0.3-0.2,0.4-0.3c-0.1,0.1-0.1,0.3-0.2,0.4c-0.2,0.3-0.5,0.7-0.8,1.1
						c-0.3,0.4-0.6,0.8-0.8,1.1c0,0,0,0,0,0c-0.3,0.5-0.4,0.9-0.5,1.3c0,0.4,0,0.8,0.2,1.2c0.2,0.3,0.4,0.6,0.7,0.8
						c0.3,0.2,0.6,0.3,0.9,0.4c0.4,0.1,0.8,0,1.3-0.2c0.2-0.1,0.4-0.1,0.5-0.2c-0.1,0.1-0.2,0.2-0.3,0.3c-0.3,0.4-0.5,0.8-0.6,1.2
						c-0.1,0.5,0,0.9,0.1,1.4c0.1,0.4,0.4,0.8,0.7,1.2c0.3,0.3,0.7,0.5,1.3,0.7c0.1,0,0.1,0,0.2,0c0.5,0.1,1,0.1,1.6,0
						c0.8-0.1,1.5-0.5,2.1-1c0.5-0.5,1-1,1.5-1.5c0.4,0,0.9-0.1,1.3-0.2c0.5-0.1,1-0.3,1.5-0.5c0.1,0,0.2-0.1,0.2-0.1
						c0.1,0.5,0.2,1,0.6,1.4c0.3,0.4,0.7,0.7,1.3,0.9c0.8,0.2,1.5,0.2,2.2,0c0.4,0,0.7,0.1,1.2,0.1c0.5,0,1-0.1,1.4-0.2
						c0.5-0.1,1-0.3,1.5-0.6c0.5-0.3,1-0.6,1.4-1.1C113.2,44.5,113.4,44.3,113.4,44z M105.9,43.3c0.1-0.2,0.2-0.5,0.7-0.9
						c0.2-0.2,0.4-0.4,0.7-0.6c0,0,0.1-0.1,0.1-0.1c0,0.2-0.1,0.4-0.1,0.6c-0.1,0.4-0.2,0.7-0.4,1.1c-0.1,0.3-0.3,0.5-0.5,0.6
						c-0.1,0.1-0.2,0.1-0.3,0.1c0,0,0,0,0,0c-0.1,0-0.2-0.1-0.2-0.2C105.8,43.7,105.8,43.5,105.9,43.3z M101,39.3
						c-0.5,0.8-1,1.4-1.4,1.8c-0.4,0.4-0.8,0.6-1.2,0.5c-0.1,0-0.2-0.1-0.3-0.1c0-0.1-0.1-0.1-0.1-0.2c0-0.1,0-0.3,0.1-0.4
						c0.1-0.2,0.2-0.3,0.3-0.5c0.2-0.3,0.5-0.5,0.7-0.7c0.3-0.2,0.5-0.3,0.8-0.4c0.3-0.1,0.5-0.1,0.7-0.1
						C100.9,39.3,101,39.3,101,39.3z M95.3,44.7c0-0.1,0.1-0.2,0.3-0.3c0.2-0.1,0.4-0.2,0.8-0.3c0.3,0,0.6,0,0.9,0c0,0,0.1,0,0.1,0
						c0.1,0,0.1,0,0.2,0c-0.3,0.3-0.6,0.5-0.9,0.6c-0.4,0.2-0.7,0.2-1,0.2c-0.2,0-0.3-0.1-0.3-0.2C95.3,44.8,95.3,44.7,95.3,44.7z
						 M95.4,42.1C95.4,42.1,95.4,42.2,95.4,42.1C95.4,42.2,95.4,42.2,95.4,42.1c-0.1,0.1-0.2,0.1-0.2,0.1
						C95.3,42.2,95.4,42.2,95.4,42.1z"/>
					<path d="M41.1,46.2c-0.1,0-0.1,0-0.2,0.1c-0.5,0.2-1,0.2-1.7,0c-0.7-0.2-1.5-0.5-2.3-0.9c-0.8-0.4-1.6-1-2.4-1.6
						c-0.6-0.4-1.1-0.9-1.6-1.4c1.1-0.5,2.1-1.1,2.9-1.8c1-0.9,1.7-1.8,2.2-2.8c0.5-1,0.7-2,0.7-3c0-1-0.3-1.9-0.8-2.7
						c-0.5-0.8-1.3-1.3-2.4-1.6c-1-0.3-2.3-0.3-3.8,0.1c-1.3,0.4-2.5,0.9-3.5,1.6c-0.9,0.7-1.7,1.5-2.2,2.3
						c-0.5,0.8-0.8,1.6-0.9,2.4c-0.1,0.8,0.1,1.6,0.5,2.2c0.2,0.3,0.5,0.6,0.8,0.8c0.3,0.2,0.6,0.3,0.9,0.3c0.3,0,0.6,0,0.9,0
						c0,0,0,0,0,0c-0.1,0.5-0.2,1-0.3,1.5c-0.1,0.8-0.3,1.5-0.4,2.1c-0.1,0.2-0.1,0.5-0.2,0.8c-0.1,0.3-0.2,0.5-0.2,0.8
						c-0.1,0.2-0.2,0.5-0.3,0.7c-0.1,0.2-0.2,0.4-0.3,0.5c-0.1,0.2-0.3,0.3-0.4,0.4c-0.2,0.1-0.3,0.2-0.5,0.2c-0.1,0-0.3,0-0.4-0.1
						c-0.1-0.1-0.2-0.2-0.3-0.3c0,0,0,0,0,0c-0.2-0.4-0.5-0.6-0.8-0.5c0,0,0,0-0.1,0c-0.2,0.1-0.4,0.4-0.4,0.8c0,0.3,0,0.6,0,1
						c0.1,0.4,0.2,0.8,0.3,1.1c0.2,0.4,0.4,0.7,0.7,1c0.3,0.3,0.7,0.5,1.2,0.6c0.5,0.1,1,0,1.5-0.2c0.5-0.2,0.9-0.5,1.3-1
						c0.4-0.4,0.7-1,0.9-1.6c0.3-0.6,0.5-1.4,0.6-2.2c0.1-0.5,0.2-1,0.2-1.5c0-0.3,0.1-0.5,0.1-0.8c0.3,0.5,0.7,1.1,1.1,1.7
						c0.6,0.8,1.2,1.6,1.9,2.3c0.7,0.7,1.4,1.3,2.1,1.8c0.8,0.5,1.6,0.8,2.4,0.9c0.4,0.1,0.8,0,1.2,0c0.1,0,0.2-0.1,0.3-0.1
						c0.4-0.2,0.8-0.4,1.2-0.7c0.3-0.3,0.6-0.6,0.9-0.9c0.2-0.3,0.4-0.6,0.5-0.9c0.2-0.5,0-0.9-0.1-1C41.7,46.3,41.5,46.1,41.1,46.2
						z M31.4,37.6c0.2-0.7,0.4-1.3,0.6-1.7c0.4-0.6,0.6-1,0.6-1.4c0-0.3-0.1-0.5-0.2-0.6c-0.2-0.2-0.5-0.2-0.8-0.1
						c-0.7,0.2-1.2,0.6-1.6,1.4c-0.3,0.5-0.6,1.2-0.9,1.9c-0.2-0.1-0.3-0.2-0.5-0.4c-0.2-0.3-0.2-0.6-0.2-1c0.1-0.4,0.4-0.9,0.9-1.4
						c0.5-0.5,1.3-1,2.4-1.4c0.8-0.3,1.5-0.3,2-0.1c0.5,0.2,0.8,0.5,1,0.9c0.2,0.4,0.3,1,0.2,1.6c-0.1,0.7-0.3,1.4-0.6,2
						c-0.3,0.7-0.8,1.3-1.3,1.9c-0.5,0.5-1.2,1-1.9,1.3c0-0.1-0.1-0.1-0.1-0.2C31,40.2,31,40.1,30.9,40C31,39.1,31.2,38.3,31.4,37.6
						z"/>
					<path d="M68.6,38.2c0.4-0.5,0.8-1,1-1.5c0.2-0.3,0.2-0.6,0.2-0.9c0-0.4-0.2-0.6-0.3-0.7C69.3,35,69.2,35,69.1,35
						c-0.1,0-0.3,0-0.4,0.1c-0.2,0.1-0.4,0.3-0.6,0.6c-0.2,0.3-0.4,0.6-0.6,0.9c-0.2,0.3-0.5,0.5-0.7,0.8c-0.3,0.2-0.5,0.4-0.8,0.5
						c-0.2,0.1-0.4,0.2-0.6,0.2c-0.1,0-0.1,0-0.1,0c-0.1-0.1-0.1-0.1-0.2-0.2c-0.1-0.1-0.1-0.3-0.2-0.5c0-0.1-0.1-0.3-0.1-0.5
						c1.2-1.2,2.4-2.4,3.7-3.6c0.2-0.2,0.3-0.4,0.3-0.7c0-0.2-0.1-0.4-0.2-0.6c-0.2-0.2-0.5-0.3-0.9-0.4c-0.3,0-0.7,0-1.1,0.1
						c-0.4,0.1-0.8,0.3-1.1,0.7c-0.2,0.2-0.4,0.4-0.7,0.8c-0.1,0.1-0.3,0.3-0.4,0.5c0-0.1,0-0.2,0-0.3c0,0,0,0,0,0
						c0-0.3-0.1-0.6-0.3-0.8c-0.1-0.2-0.3-0.4-0.6-0.4c-0.2-0.1-0.4-0.1-0.6-0.1c-0.2,0-0.4,0.1-0.6,0.1c0,0,0,0,0,0
						c-0.7,0.2-1,0.6-1.1,1c-0.1,0.2-0.2,0.6-0.5,1.2c-0.2,0.5-0.5,1.1-0.8,1.7c0,0,0,0,0,0.1c-0.2,0.3-0.3,0.6-0.5,0.9
						c-0.2,0.3-0.5,0.6-0.7,0.8c-0.2,0.2-0.5,0.4-0.7,0.6c-0.1,0.1-0.3,0.1-0.4,0.2c0-0.1,0.1-0.3,0.1-0.5c0.1-0.2,0.2-0.4,0.3-0.7
						c0.1-0.2,0.2-0.5,0.3-0.8c0.1-0.3,0.3-0.6,0.4-0.9c0.1-0.3,0.3-0.6,0.4-0.9c0.1-0.3,0.3-0.6,0.4-0.9c0.2-0.4,0.2-0.6,0.2-0.9
						c0-0.3-0.2-0.5-0.5-0.7c-0.2-0.1-0.4-0.1-0.6,0c-0.2,0-0.4,0.1-0.6,0.1c0,0,0,0,0,0c-0.2,0.1-0.4,0.1-0.5,0.2
						c-0.2,0.1-0.3,0.1-0.5,0.3c-0.1,0.1-0.3,0.3-0.4,0.4c0,0,0,0,0,0c-0.3-0.2-0.7-0.3-1-0.3c-0.5-0.1-1.1,0-1.6,0.3
						c-0.5,0.2-1.1,0.6-1.6,1.1c-0.5,0.5-0.9,1.1-1.3,1.7c-0.2,0.3-0.3,0.6-0.4,0.9c-0.2,0.4-0.5,0.8-0.7,1.2
						c-0.3,0.4-0.5,0.7-0.8,0.9c-0.2,0.2-0.4,0.3-0.6,0.4c0,0-0.1,0-0.1,0c-0.1,0-0.1,0-0.1,0c-0.1,0-0.1-0.1-0.2-0.3
						c-0.1-0.2-0.1-0.4-0.1-0.6c0-0.3,0-0.6,0-0.9c0-0.3,0.1-0.6,0.2-1c0.2-0.2,0.4-0.5,0.7-0.7c0.3-0.3,0.6-0.6,0.9-0.9
						c0.3-0.3,0.6-0.6,0.9-0.9c0.3-0.3,0.6-0.6,0.8-0.9c0.9-1.1,1.4-2,1.6-2.8c0.4-1.3-0.2-1.8-0.6-2.1c-0.4-0.2-0.8-0.2-1.4-0.1
						c-0.5,0.2-0.9,0.5-1.4,0.9c-0.5,0.5-1,1.1-1.5,1.8c-0.5,0.7-1,1.6-1.5,2.7c-0.7,1.5-1.1,2.8-1.3,3.9c0,0,0,0,0,0.1
						c-0.2,0.4-0.4,0.8-0.7,1.2c-0.3,0.4-0.6,0.7-1,1c-0.3,0.3-0.7,0.5-1,0.7c-0.2,0.1-0.4,0.2-0.6,0.2l0,0c-0.1,0-0.2,0-0.3,0
						c0,0,0,0,0,0c-0.1,0-0.3,0-0.4-0.1c0.4-0.2,0.7-0.4,1.1-0.7c0.6-0.4,1-0.9,1.4-1.4c0.3-0.4,0.5-0.8,0.6-1.3
						c0.1-0.4,0.1-0.9,0.1-1.3c-0.1-0.4-0.2-0.8-0.5-1.1c-0.3-0.3-0.6-0.5-1.1-0.6c0,0,0,0,0,0c-0.6-0.1-1.1-0.1-1.7,0.1
						c-0.5,0.2-1,0.5-1.4,1c-0.4,0.4-0.7,0.9-1,1.5c-0.3,0.5-0.5,1.1-0.6,1.6c-0.2,0.8-0.3,1.5-0.2,2.2c0.1,0.7,0.2,1.3,0.5,1.7
						c0.3,0.5,0.7,0.8,1.2,1c0.5,0.2,1.1,0.2,1.7,0.1c0.5-0.1,1.1-0.3,1.6-0.6c0.5-0.3,1-0.7,1.4-1.1c0.3-0.3,0.5-0.6,0.8-0.9
						c0.2,0.5,0.4,0.9,0.7,1.1c0.4,0.4,0.9,0.5,1.5,0.4c0.5-0.1,0.9-0.3,1.4-0.6c0.4-0.3,0.9-0.7,1.3-1.1c0.2-0.2,0.3-0.3,0.5-0.5
						c0.2,0.4,0.5,0.8,0.8,1c0.4,0.3,0.9,0.5,1.5,0.4c0.5-0.1,1-0.3,1.4-0.6c0.2-0.1,0.4-0.3,0.5-0.5c0.1,0.2,0.3,0.3,0.5,0.4
						c0.4,0.2,0.8,0.3,1.3,0.2c0.4,0,0.8-0.2,1.2-0.5c0.4-0.3,0.9-0.7,1.3-1.1c0.2-0.2,0.4-0.4,0.6-0.6c0,0-0.1,0.1-0.1,0.1
						c-0.1,0.2-0.3,0.3-0.3,0.4c0,0,0,0,0,0c-0.1,0.1-0.4,0.5-0.3,1c0.1,0.3,0.3,0.5,0.5,0.6c0.1,0,0.3,0.1,0.4,0c0.1,0,0.1,0,0.2,0
						c0.3,0,0.5-0.2,0.6-0.4c0.5-0.5,0.9-1,1.4-1.6c0.2,0.4,0.4,0.8,0.6,1c0.4,0.4,0.9,0.6,1.5,0.6c0.4,0,0.8-0.2,1.3-0.5
						c0.4-0.3,0.9-0.6,1.4-1C67.7,39.1,68.2,38.7,68.6,38.2z M55.7,35.7c-0.3,0.9-0.7,1.6-1.1,2.2c-0.4,0.6-0.8,0.9-1.2,0.9
						c-0.1,0-0.2,0-0.3,0c-0.1,0-0.1-0.1-0.1-0.1c0-0.1,0-0.2,0-0.4c0-0.2,0.1-0.4,0.2-0.6c0.1-0.3,0.3-0.6,0.5-0.9
						c0.2-0.3,0.4-0.5,0.7-0.7c0.2-0.2,0.5-0.3,0.7-0.3c0.1,0,0.2,0,0.2,0C55.5,35.6,55.6,35.6,55.7,35.7
						C55.7,35.7,55.7,35.7,55.7,35.7z M41.3,38.4c0.1-0.4,0.3-0.7,0.5-1c0.3-0.4,0.5-0.5,0.6-0.6c0,0,0,0,0.1,0c0,0,0,0,0.1,0
						c0,0,0,0.1-0.1,0.3c-0.2,0.5-0.5,0.8-0.8,1.1C41.5,38.3,41.4,38.4,41.3,38.4z M61.5,36.9C61.5,36.8,61.6,36.8,61.5,36.9
						c0.1-0.2,0.1-0.3,0.2-0.4c0,0.1,0.1,0.2,0.1,0.4c-0.2,0.3-0.5,0.6-0.7,0.8c-0.1,0.1-0.1,0.1-0.1,0.2
						C61.2,37.5,61.4,37.2,61.5,36.9z"/>
				</g>
				<g>
					<path class="st5" d="M77.7,29c0.3,0.6,0.5,1.4,0.6,2.2c0.1,0.8,0,1.6-0.1,2.5c-0.1,0.9-0.3,1.7-0.6,2.6
						c-0.3,0.9-0.6,1.7-0.9,2.5c-0.3,0.8-0.7,1.5-1.1,2.2c-0.4,0.7-0.8,1.2-1.1,1.7c0.5-0.3,1-0.8,1.5-1.3c0.5-0.6,1-1.2,1.5-2
						c0.5-0.7,1-1.5,1.5-2.4c0.5-0.8,1.1-1.7,1.6-2.5c0.5-0.8,1.1-1.7,1.7-2.5c0.6-0.8,1.2-1.5,1.8-2.2c0.6-0.6,1.3-1.2,1.9-1.6
						c0.7-0.4,1.4-0.7,2.1-0.8c0.5-0.1,1,0,1.4,0.1c0.4,0.1,0.7,0.3,1,0.6c0.3,0.2,0.5,0.5,0.6,0.8c0.1,0.3,0.2,0.6,0.2,0.8
						c0,0.2,0,0.4-0.1,0.5c-0.1,0.1-0.2,0.1-0.4,0.1c-0.7-0.3-1.3-0.3-2-0.1c-0.7,0.2-1.4,0.6-2.2,1.2c-0.7,0.6-1.5,1.3-2.2,2.1
						c-0.7,0.8-1.5,1.7-2.2,2.6c-0.7,0.9-1.5,1.8-2.2,2.8c-0.7,0.9-1.5,1.8-2.2,2.5c-0.7,0.7-1.4,1.4-2.2,1.9
						c-0.7,0.5-1.4,0.8-2.2,0.8c-0.2,0-0.3,0-0.4-0.1c-0.1-0.1-0.2-0.2-0.2-0.3c0-0.1,0-0.3,0-0.5c0-0.2,0.2-0.4,0.3-0.6
						c0.5-0.6,0.9-1.3,1.2-2.2c0.4-0.9,0.6-1.9,0.8-3c-0.4,0.8-0.8,1.5-1.3,2.2c-0.5,0.7-1,1.3-1.6,1.9c-0.6,0.6-1.2,1.1-1.8,1.5
						c-0.6,0.4-1.3,0.7-2.1,0.9c-0.2,0-0.3,0-0.4-0.1c-0.1-0.1-0.2-0.2-0.2-0.3c0-0.1,0-0.3,0-0.5c0-0.2,0.1-0.4,0.3-0.6
						c0.4-0.5,0.8-1.2,1.1-2.1c0.3-0.9,0.6-1.8,0.7-2.8c0.2-1,0.3-2,0.3-3c0-1,0-2-0.2-2.8c-0.1-0.9-0.4-1.6-0.7-2.2
						c-0.3-0.6-0.8-1-1.3-1.2c-0.3-0.1-0.4-0.2-0.4-0.4c0-0.2,0.1-0.3,0.3-0.5c0.2-0.2,0.5-0.3,0.8-0.4c0.4-0.1,0.7-0.1,1.1-0.1
						c0.4,0,0.8,0.2,1.2,0.4c0.4,0.2,0.7,0.6,1,1.1c0.3,0.6,0.6,1.3,0.6,2.2c0.1,0.8,0.1,1.6,0,2.5c-0.1,0.9-0.3,1.7-0.5,2.6
						c-0.2,0.9-0.5,1.7-0.8,2.5c-0.3,0.8-0.7,1.5-1,2.2c-0.4,0.7-0.7,1.2-1.1,1.7c0.6-0.3,1.3-0.8,1.9-1.4c0.6-0.6,1.2-1.3,1.7-2.1
						c0.5-0.8,1-1.7,1.4-2.6c0.4-0.9,0.7-1.8,0.9-2.8c0.2-0.9,0.3-1.8,0.2-2.6c0-0.8-0.3-1.6-0.6-2.2c-0.1-0.2-0.2-0.4-0.1-0.5
						c0.1-0.1,0.2-0.2,0.4-0.3c0.2-0.1,0.4-0.1,0.6,0c0.2,0,0.5,0.1,0.7,0.2c0.2,0.1,0.4,0.2,0.6,0.4C77.5,28.5,77.6,28.7,77.7,29z"
						/>
					<path class="st5" d="M87.6,34.9c-0.2,0.2-0.3,0.5-0.5,0.8c-0.2,0.3-0.4,0.6-0.6,0.8c-0.2,0.3-0.4,0.5-0.5,0.8
						c-0.2,0.3-0.3,0.5-0.5,0.7c-0.1,0.2-0.3,0.4-0.4,0.6c-0.1,0.2-0.2,0.4-0.3,0.6c-0.1,0.2-0.1,0.3-0.1,0.4c0,0.1,0.1,0.2,0.3,0.2
						c0.2,0,0.5,0,0.8-0.1c0.3-0.1,0.6-0.2,0.9-0.4c0.3-0.2,0.6-0.4,0.9-0.7c0.3-0.3,0.6-0.6,0.8-0.9c0.1-0.2,0.3-0.3,0.4-0.4
						c0.1-0.1,0.3,0,0.3,0c0.1,0.1,0.1,0.2,0.1,0.3c0,0.2-0.1,0.4-0.2,0.6c-0.3,0.4-0.6,0.8-1.1,1.2c-0.4,0.4-0.9,0.8-1.4,1.1
						c-0.5,0.3-1,0.6-1.4,0.8c-0.5,0.2-0.8,0.3-1.1,0.2c-0.3,0-0.5-0.1-0.8-0.2c-0.2-0.1-0.4-0.3-0.5-0.5c-0.1-0.2-0.1-0.5-0.1-0.8
						c0-0.3,0.2-0.7,0.4-1.2c0.2-0.4,0.4-0.8,0.6-1.2c0.2-0.4,0.3-0.7,0.5-1c0.2-0.3,0.3-0.6,0.5-0.8c0.1-0.3,0.3-0.5,0.4-0.8
						c0.1-0.2,0.3-0.4,0.4-0.6c0.1-0.1,0.2-0.2,0.3-0.3c0.1-0.1,0.2-0.1,0.4-0.1c0.1,0,0.3,0,0.5,0c0.2,0,0.4,0,0.6,0
						c0.2,0,0.3,0.1,0.4,0.1c0.1,0.1,0.2,0.2,0.1,0.3C87.8,34.4,87.7,34.6,87.6,34.9z M89.2,31.8c0.1,0.3,0,0.5-0.1,0.7
						c-0.1,0.2-0.3,0.4-0.5,0.6c-0.2,0.2-0.4,0.3-0.7,0.4c-0.3,0.1-0.5,0.1-0.8,0.1c-0.2,0-0.5-0.1-0.7-0.2s-0.3-0.3-0.4-0.5
						c-0.1-0.2,0-0.5,0.1-0.7c0.1-0.2,0.3-0.4,0.5-0.6c0.2-0.2,0.4-0.3,0.7-0.4c0.3-0.1,0.5-0.1,0.8-0.1c0.2,0,0.5,0.1,0.6,0.2
						C89,31.3,89.1,31.5,89.2,31.8z"/>
					<path class="st5" d="M94,39.3c-0.2,0.2-0.3,0.4-0.5,0.6c-0.2,0.2-0.3,0.4-0.4,0.6C93,40.6,93,40.8,93,40.9
						c0,0.1,0.1,0.2,0.2,0.2c0.2,0,0.5,0,0.8-0.1c0.3-0.1,0.6-0.2,0.9-0.4c0.3-0.2,0.6-0.4,0.9-0.6c0.3-0.2,0.6-0.5,0.8-0.8
						c0.2-0.2,0.3-0.3,0.5-0.4c0.1,0,0.3,0,0.3,0c0.1,0.1,0.1,0.2,0.1,0.4c0,0.2-0.1,0.3-0.3,0.6c-0.3,0.4-0.7,0.8-1.1,1.1
						c-0.5,0.4-0.9,0.7-1.4,1c-0.5,0.3-1,0.5-1.4,0.7c-0.5,0.2-0.8,0.2-1.1,0.2c-0.3-0.1-0.6-0.2-0.8-0.3c-0.2-0.1-0.4-0.3-0.5-0.6
						c-0.1-0.2-0.2-0.5-0.1-0.9c0-0.3,0.2-0.7,0.4-1.1c0.2-0.3,0.4-0.7,0.7-1.1c0.3-0.4,0.6-0.8,0.8-1.1c0.2-0.3,0.4-0.6,0.4-0.9
						c0.1-0.2,0-0.4-0.3-0.4c-0.2,0-0.5,0.1-0.9,0.4c-0.4,0.3-0.8,0.7-1.2,1.2c-0.4,0.5-0.9,1-1.3,1.6c-0.4,0.6-0.7,1.1-1,1.6
						c-0.2,0.3-0.3,0.5-0.4,0.6C88,42,87.9,42,87.7,42c-0.2,0-0.3,0-0.5-0.1c-0.3,0-0.5-0.1-0.6-0.3c-0.1-0.1-0.1-0.3,0-0.7
						c0.1-0.3,0.3-0.6,0.4-0.9c0.1-0.3,0.3-0.5,0.4-0.9c0.2-0.4,0.4-0.8,0.6-1.2c0.2-0.3,0.4-0.7,0.5-1c0.2-0.3,0.3-0.6,0.5-0.8
						c0.2-0.2,0.3-0.5,0.5-0.7c0.1-0.2,0.3-0.4,0.4-0.6s0.3-0.2,0.4-0.3c0.2-0.1,0.3-0.1,0.5-0.1c0.2,0,0.4,0,0.6,0
						c0.3,0,0.5,0.1,0.5,0.3c0,0.2-0.1,0.5-0.4,0.9c0.4-0.3,0.8-0.5,1.2-0.7c0.4-0.2,0.8-0.2,1.2-0.1c0.5,0.1,0.8,0.3,1.1,0.5
						c0.2,0.3,0.3,0.6,0.3,1c0,0.4-0.1,0.8-0.4,1.3C94.8,38.3,94.4,38.8,94,39.3z"/>
					<path class="st5" d="M97.2,38.6c0.5-0.5,1-0.8,1.5-1.1c0.5-0.3,1-0.4,1.5-0.5c0.5,0,1,0,1.4,0.2c0.4,0.2,0.8,0.4,1.1,0.8
						c0.1-0.1,0.2-0.2,0.3-0.3c0.1-0.1,0.2-0.1,0.3-0.2c0.1,0,0.2,0,0.4,0c0.1,0,0.3,0,0.5,0c0.2,0,0.4,0.1,0.6,0.1
						c0.2,0,0.3,0.1,0.4,0.2c0.1,0.1,0.1,0.2,0.1,0.3s-0.1,0.3-0.3,0.5c-0.2,0.2-0.4,0.5-0.6,0.7c-0.2,0.3-0.4,0.5-0.6,0.8
						c-0.2,0.2-0.4,0.5-0.6,0.7c-0.2,0.2-0.4,0.4-0.5,0.6c-0.2,0.3-0.5,0.6-0.7,0.9c-0.2,0.3-0.5,0.7-0.7,1c0.7-0.1,1.4-0.3,2.1-0.6
						c0.7-0.3,1.4-0.7,2-1.3c0.2-0.1,0.3-0.2,0.5-0.3c0.2,0,0.3,0,0.4,0.1c0.1,0.1,0.1,0.2,0.1,0.3c0,0.1-0.1,0.3-0.3,0.5
						c-0.4,0.4-0.9,0.8-1.3,1.1c-0.5,0.3-0.9,0.5-1.4,0.7c-0.5,0.2-1,0.3-1.5,0.4c-0.5,0.1-1,0.2-1.5,0.2c-0.5,0.6-1,1.2-1.5,1.6
						c-0.5,0.5-1.2,0.8-1.9,0.9c-0.6,0.1-1.1,0.1-1.6,0c-0.4-0.1-0.8-0.3-1.1-0.6c-0.3-0.3-0.5-0.6-0.6-0.9
						c-0.1-0.4-0.1-0.7-0.1-1.1s0.2-0.7,0.5-1c0.2-0.3,0.6-0.5,1-0.7c0.1-0.1,0.3-0.1,0.5-0.1c0.2,0,0.3-0.1,0.5-0.1
						c-0.2-0.6-0.2-1.2,0-1.9C96.2,39.9,96.6,39.3,97.2,38.6z M95.6,45.5c0.3,0.1,0.7,0,1.2-0.2c0.5-0.2,1-0.6,1.6-1.2
						c-0.3-0.2-0.7-0.3-1.1-0.4c-0.4-0.1-0.7-0.1-1.1,0c-0.4,0.1-0.7,0.2-1,0.4c-0.2,0.2-0.4,0.4-0.4,0.6c-0.1,0.2,0,0.4,0.1,0.6
						C95.1,45.3,95.3,45.4,95.6,45.5z M98.4,42.1c0.5,0.1,1-0.1,1.5-0.6c0.5-0.6,1.1-1.3,1.7-2.4c-0.1,0-0.1-0.1-0.2-0.1
						c-0.2-0.1-0.4-0.2-0.7-0.2s-0.6,0-0.9,0.1c-0.3,0.1-0.6,0.2-0.9,0.4c-0.3,0.2-0.6,0.5-0.8,0.8c-0.2,0.2-0.3,0.4-0.4,0.6
						c-0.1,0.2-0.1,0.4-0.1,0.6c0,0.2,0.1,0.4,0.2,0.5C98,42,98.2,42.1,98.4,42.1z"/>
					<path class="st5" d="M110,39.3c0.3,0.1,0.5,0.2,0.7,0.3c0.2,0.1,0.3,0.2,0.3,0.2c0.1,0.1,0.1,0.2,0.1,0.2c0,0.1,0,0.2,0,0.3
						c0,0.2-0.1,0.3-0.2,0.3c-0.1,0-0.2,0-0.3,0c-0.1,0-0.2,0.1-0.3,0.1c-0.1,0.1-0.2,0.3-0.2,0.6c-0.1,0.7-0.2,1.3-0.5,1.9
						c-0.2,0.6-0.5,1.1-0.8,1.6c0.3,0,0.5,0,0.8,0c0.3,0,0.6-0.1,0.9-0.2c0.3-0.1,0.6-0.2,0.9-0.4c0.3-0.2,0.5-0.4,0.7-0.6
						c0.2-0.2,0.3-0.3,0.5-0.3c0.1,0,0.3,0,0.3,0.1c0.1,0.1,0.1,0.2,0.1,0.4c0,0.2-0.1,0.3-0.3,0.5c-0.4,0.4-0.8,0.7-1.3,1
						c-0.5,0.2-0.9,0.4-1.4,0.5c-0.5,0.1-0.9,0.2-1.4,0.2c-0.4,0-0.8,0-1.2-0.1c-0.6,0.3-1.3,0.3-2,0c-0.4-0.1-0.8-0.4-1-0.7
						c-0.3-0.3-0.4-0.7-0.4-1.1c0-0.4,0-0.9,0.2-1.4c0.2-0.5,0.6-1,1-1.4c0.5-0.5,1-0.9,1.3-1.2c0.3-0.3,0.6-0.6,0.9-0.8
						c0.2-0.2,0.4-0.3,0.6-0.4c0.2-0.1,0.3-0.1,0.5-0.1c0.2,0,0.4,0,0.6,0.1C109.4,39.2,109.7,39.2,110,39.3z M106.6,44.4
						c0.3-0.2,0.5-0.5,0.7-0.8c0.2-0.4,0.3-0.7,0.4-1.2c0.1-0.4,0.2-0.8,0.3-1.2c0.1-0.4,0.2-0.7,0.3-0.9c-0.2,0.2-0.4,0.3-0.6,0.5
						c-0.2,0.1-0.4,0.3-0.6,0.5c-0.2,0.2-0.4,0.4-0.7,0.6c-0.5,0.4-0.8,0.8-0.9,1.2c-0.1,0.4-0.1,0.7,0,0.9c0.1,0.2,0.3,0.4,0.5,0.5
						C106.1,44.5,106.3,44.5,106.6,44.4z"/>
					<path class="st5" d="M26,38.7c-0.4-0.5-0.5-1.1-0.4-1.8s0.3-1.5,0.8-2.2s1.2-1.5,2.1-2.1c0.9-0.7,2-1.2,3.3-1.5
						c1.4-0.4,2.6-0.4,3.5-0.1c1,0.3,1.7,0.8,2.2,1.5c0.5,0.7,0.7,1.5,0.7,2.4c0,0.9-0.2,1.9-0.7,2.8c-0.5,0.9-1.1,1.8-2.1,2.6
						c-0.9,0.8-2.1,1.5-3.5,2c0.6,0.7,1.4,1.4,2.2,2c0.8,0.6,1.7,1.2,2.5,1.6c0.8,0.4,1.6,0.8,2.4,1c0.8,0.2,1.4,0.2,1.9,0
						c0.3-0.1,0.4-0.1,0.5,0c0.1,0.1,0.1,0.3,0,0.5c-0.1,0.2-0.2,0.5-0.4,0.8c-0.2,0.3-0.5,0.6-0.8,0.8c-0.3,0.2-0.7,0.4-1.1,0.6
						c-0.4,0.1-0.8,0.2-1.3,0.1c-0.7-0.1-1.5-0.4-2.2-0.9c-0.7-0.5-1.4-1.1-2.1-1.8c-0.7-0.7-1.3-1.4-1.8-2.2
						c-0.6-0.8-1-1.5-1.4-2.2c-0.1,0-0.1,0-0.2,0c-0.1,0-0.1,0-0.2,0c-0.1,0.5-0.1,1-0.2,1.5c-0.1,0.5-0.1,1-0.2,1.5
						c-0.1,0.8-0.3,1.4-0.6,2c-0.2,0.6-0.5,1.1-0.9,1.5c-0.3,0.4-0.7,0.7-1.1,0.9c-0.4,0.2-0.8,0.2-1.3,0.2c-0.4-0.1-0.7-0.2-1-0.5
						c-0.3-0.3-0.5-0.5-0.6-0.8c-0.2-0.3-0.2-0.6-0.3-1c0-0.3-0.1-0.6,0-0.8c0-0.2,0.1-0.3,0.2-0.4c0.1,0,0.2,0,0.3,0.3
						c0.1,0.3,0.3,0.4,0.5,0.5c0.2,0.1,0.4,0.1,0.6,0.1c0.2,0,0.4-0.1,0.6-0.2c0.2-0.1,0.4-0.3,0.6-0.5c0.1-0.2,0.2-0.4,0.4-0.6
						c0.1-0.2,0.2-0.5,0.3-0.8c0.1-0.3,0.2-0.6,0.3-0.8c0.1-0.3,0.1-0.6,0.2-0.8c0.1-0.6,0.3-1.3,0.4-2.1c0.1-0.8,0.3-1.5,0.5-2.3
						c-0.2,0.1-0.5,0.2-0.7,0.2s-0.5,0.1-0.8,0s-0.5-0.1-0.7-0.3C26.4,39.2,26.2,39,26,38.7z M31.7,34.3c0.3-0.1,0.5,0,0.5,0.3
						c0,0.3-0.2,0.6-0.5,1.1c-0.3,0.4-0.5,1-0.7,1.8c-0.2,0.8-0.4,1.6-0.5,2.6c0.1,0.2,0.2,0.3,0.3,0.5c0.1,0.2,0.2,0.3,0.3,0.5
						c0.1,0,0.2-0.1,0.2-0.1c0.8-0.3,1.5-0.8,2.1-1.4c0.6-0.6,1.1-1.3,1.4-2c0.3-0.7,0.5-1.5,0.6-2.2c0.1-0.7,0-1.4-0.2-1.9
						c-0.2-0.5-0.7-0.9-1.2-1.1c-0.6-0.2-1.3-0.2-2.3,0.1c-1.2,0.4-2.1,0.9-2.6,1.5c-0.6,0.6-0.9,1.1-1,1.7c-0.1,0.5,0,1,0.2,1.4
						c0.3,0.4,0.6,0.6,1.1,0.7c0.3-0.9,0.6-1.6,1-2.2C30.7,34.8,31.1,34.4,31.7,34.3z"/>
					<path class="st5" d="M43.6,38.4c-0.3,0.5-0.8,0.9-1.3,1.3c-0.5,0.4-1.1,0.7-1.6,0.9c0.1,0.3,0.3,0.5,0.5,0.6
						c0.2,0.1,0.4,0.2,0.7,0.2c0.3,0,0.7-0.1,1.1-0.3c0.4-0.2,0.7-0.5,1.1-0.8c0.4-0.3,0.7-0.7,1-1.1c0.3-0.4,0.6-0.9,0.8-1.3
						c0.1-0.2,0.3-0.4,0.4-0.5c0.1-0.1,0.2-0.1,0.3-0.1c0.1,0,0.1,0.1,0.2,0.3c0,0.2,0,0.4-0.1,0.6c-0.3,0.7-0.6,1.3-1,1.8
						c-0.4,0.6-0.8,1.1-1.2,1.5C44,42,43.5,42.4,43,42.7c-0.5,0.3-1,0.5-1.4,0.6c-0.6,0.1-1,0.1-1.5-0.1c-0.4-0.2-0.8-0.4-1-0.8
						c-0.3-0.4-0.4-0.9-0.5-1.5c-0.1-0.6,0-1.3,0.2-2c0.1-0.5,0.3-1,0.6-1.5c0.3-0.5,0.6-1,0.9-1.3c0.4-0.4,0.8-0.7,1.2-0.9
						c0.4-0.2,0.9-0.2,1.4-0.1c0.4,0.1,0.7,0.3,0.9,0.5c0.2,0.2,0.3,0.5,0.4,0.8c0.1,0.3,0,0.7-0.1,1C44.1,37.7,43.9,38.1,43.6,38.4
						z M40.6,39.4c0.4-0.2,0.8-0.4,1.2-0.7c0.4-0.3,0.7-0.7,1-1.3c0.2-0.4,0.2-0.7,0.1-0.8c-0.1-0.2-0.3-0.2-0.6-0.1
						c-0.3,0.1-0.6,0.3-0.9,0.7c-0.3,0.4-0.6,1-0.7,1.8C40.7,39.1,40.7,39.2,40.6,39.4z"/>
					<path class="st5" d="M51.2,33c-0.2,0.3-0.5,0.6-0.8,0.9c-0.3,0.3-0.6,0.6-0.9,0.9c-0.3,0.3-0.6,0.6-0.9,0.9
						c-0.3,0.3-0.5,0.6-0.8,0.8c-0.1,0.4-0.2,0.8-0.2,1.2c0,0.4-0.1,0.7,0,1c0,0.3,0.1,0.6,0.2,0.8c0.1,0.2,0.2,0.4,0.4,0.5
						c0.1,0.1,0.3,0.1,0.6,0c0.2-0.1,0.5-0.3,0.8-0.5c0.3-0.2,0.6-0.6,0.8-1c0.3-0.4,0.6-0.8,0.8-1.4c0.1-0.2,0.2-0.4,0.4-0.5
						c0.1-0.1,0.2-0.1,0.3-0.1c0.1,0,0.1,0.1,0.2,0.3c0,0.2,0,0.4-0.1,0.6c-0.2,0.6-0.5,1.2-0.9,1.7c-0.3,0.5-0.7,1-1.1,1.4
						s-0.8,0.7-1.2,1c-0.4,0.3-0.8,0.4-1.2,0.5c-0.4,0.1-0.8,0-1.1-0.3c-0.3-0.3-0.6-0.8-0.7-1.4c-0.1-0.7-0.1-1.5,0.1-2.6
						c0.2-1,0.6-2.3,1.3-3.8c0.5-1,0.9-1.9,1.4-2.6c0.5-0.7,1-1.3,1.4-1.7c0.5-0.4,0.9-0.7,1.3-0.8c0.4-0.1,0.7-0.1,1,0
						c0.5,0.3,0.6,0.8,0.4,1.5C52.5,31.1,52,32,51.2,33z M51.5,30.5c-0.1,0-0.2,0-0.4,0.2c-0.2,0.2-0.3,0.4-0.6,0.7
						c-0.2,0.3-0.4,0.7-0.7,1.2c-0.3,0.4-0.5,0.9-0.8,1.4c0.3-0.4,0.7-0.8,1-1.2c0.3-0.4,0.6-0.7,0.8-1.1c0.2-0.3,0.4-0.6,0.5-0.8
						C51.6,30.7,51.6,30.6,51.5,30.5z"/>
					<path class="st5" d="M59.2,33.7c-0.1,0.3-0.2,0.6-0.4,0.9c-0.1,0.3-0.3,0.6-0.4,0.9c-0.1,0.3-0.3,0.6-0.4,0.9
						c-0.1,0.3-0.2,0.5-0.3,0.8c-0.1,0.2-0.2,0.5-0.3,0.7c-0.1,0.2-0.2,0.4-0.2,0.6s0,0.3,0,0.4c0,0.1,0.1,0.2,0.3,0.1
						c0.2,0,0.5-0.1,0.8-0.3c0.3-0.2,0.6-0.4,0.8-0.6c0.3-0.3,0.5-0.6,0.8-0.9c0.2-0.3,0.4-0.7,0.6-1c0.1-0.2,0.2-0.4,0.4-0.5
						c0.1-0.1,0.2-0.1,0.3,0c0.1,0.1,0.1,0.2,0.2,0.3c0,0.2,0,0.4-0.1,0.6c-0.2,0.4-0.5,0.9-0.9,1.4c-0.4,0.5-0.8,1-1.2,1.4
						c-0.4,0.4-0.8,0.8-1.3,1.1c-0.4,0.3-0.8,0.4-1.1,0.5c-0.4,0-0.8,0-1-0.2c-0.3-0.2-0.5-0.5-0.5-0.9c-0.2,0.3-0.5,0.7-0.9,1
						c-0.3,0.3-0.8,0.5-1.2,0.5c-0.5,0.1-0.9,0-1.2-0.3c-0.3-0.3-0.6-0.6-0.8-1.1c-0.2-0.5-0.2-1-0.1-1.7c0.1-0.6,0.3-1.3,0.6-2
						c0.3-0.6,0.7-1.2,1.2-1.6c0.5-0.4,0.9-0.8,1.4-1c0.5-0.2,1-0.3,1.4-0.2c0.5,0,0.9,0.2,1.2,0.6c0.1-0.2,0.2-0.4,0.2-0.5
						c0.1-0.1,0.2-0.2,0.3-0.3c0.1-0.1,0.2-0.1,0.3-0.2c0.1,0,0.3-0.1,0.5-0.2c0.2,0,0.4-0.1,0.6-0.1c0.2,0,0.3,0,0.4,0
						c0.1,0,0.2,0.1,0.2,0.3C59.3,33.2,59.3,33.4,59.2,33.7z M53.5,39.2c0.5-0.1,1-0.4,1.5-1.1c0.5-0.7,0.9-1.5,1.3-2.6
						c-0.1-0.2-0.3-0.3-0.5-0.4c-0.2-0.1-0.5-0.1-0.7,0c-0.3,0.1-0.5,0.2-0.8,0.4c-0.3,0.2-0.5,0.4-0.8,0.8c-0.2,0.3-0.4,0.6-0.6,1
						c-0.1,0.3-0.2,0.5-0.2,0.7c0,0.2,0,0.5,0,0.6s0.2,0.3,0.3,0.4C53.1,39.2,53.3,39.3,53.5,39.2z"/>
					<path class="st5" d="M60.4,36.2c0.3-0.6,0.6-1.2,0.8-1.8c0.2-0.6,0.4-1,0.5-1.2c0.1-0.3,0.3-0.5,0.7-0.6c0.2,0,0.4-0.1,0.5-0.1
						c0.2,0,0.3,0,0.5,0c0.1,0,0.2,0.1,0.3,0.3c0.1,0.1,0.1,0.3,0.2,0.6c0,0.5,0.1,0.9,0.1,1.4c0.4-0.5,0.8-0.9,1.1-1.2
						c0.3-0.4,0.6-0.6,0.7-0.8c0.2-0.3,0.5-0.5,0.9-0.5c0.4-0.1,0.7-0.1,1-0.1c0.3,0,0.5,0.1,0.6,0.3c0.1,0.1,0.1,0.3-0.1,0.5
						c-1.3,1.3-2.6,2.5-3.9,3.8c0,0,0,0,0,0c0,0.3,0.1,0.5,0.1,0.7c0.1,0.2,0.1,0.4,0.2,0.6c0.1,0.2,0.2,0.3,0.3,0.4
						c0.1,0.1,0.2,0.1,0.4,0.1c0.2,0,0.5-0.1,0.8-0.2c0.3-0.1,0.6-0.3,0.8-0.6c0.3-0.2,0.6-0.5,0.8-0.8s0.5-0.6,0.7-1
						c0.1-0.2,0.3-0.4,0.4-0.5c0.1-0.1,0.2-0.1,0.3,0c0.1,0.1,0.1,0.2,0.1,0.3c0,0.2,0,0.4-0.2,0.6c-0.2,0.4-0.5,0.9-0.9,1.4
						c-0.4,0.5-0.8,0.9-1.3,1.3c-0.5,0.4-0.9,0.7-1.3,1c-0.4,0.3-0.8,0.4-1.1,0.4c-0.5,0-0.9-0.1-1.2-0.4c-0.3-0.3-0.5-0.8-0.7-1.5
						c-0.6,0.7-1.3,1.4-1.9,2.1c-0.1,0.1-0.2,0.2-0.4,0.2s-0.3,0-0.5,0c-0.1,0-0.2-0.1-0.2-0.3c0-0.1,0-0.3,0.2-0.5
						c0.1-0.1,0.2-0.2,0.3-0.4c0.2-0.2,0.3-0.4,0.6-0.7c0.2-0.3,0.5-0.6,0.7-0.9c0.3-0.3,0.6-0.7,0.9-1c-0.1-0.4-0.2-0.8-0.2-1.1
						c-0.1-0.3-0.1-0.6-0.2-0.9c-0.1,0.3-0.2,0.6-0.4,0.9c-0.1,0.3-0.3,0.5-0.4,0.8c-0.1,0.2-0.3,0.4-0.4,0.5
						c-0.1,0.1-0.3,0.1-0.3,0.1c-0.1-0.1-0.1-0.2-0.1-0.3C60.2,36.7,60.3,36.5,60.4,36.2z"/>
				</g>
				<g>
					<path class="st1" d="M71.5,41.2c-0.6,0.6-1.3,1.1-2,1.4c0,0-0.1,0-0.1,0c0,0.1,0,0.1,0,0.1c0.1,0.1,0.2,0.1,0.3,0.1
						c0.7-0.3,1.3-0.8,2-1.4c0.6-0.6,1.2-1.4,1.8-2.2c0.5-0.8,1-1.7,1.4-2.6c0.4-0.9,0.7-1.9,0.9-2.8c0.2-0.9,0.3-1.9,0.3-2.7
						c0-0.9-0.3-1.7-0.7-2.4c-0.1-0.1-0.1-0.2-0.1-0.2c0-0.1,0.1-0.1,0.2-0.2c0.2,0,0.3-0.1,0.6,0c0.2,0,0.4,0.1,0.7,0.2
						c0.2,0.1,0.4,0.2,0.5,0.3c-0.1-0.1-0.1-0.2-0.2-0.2c-0.2-0.1-0.3-0.3-0.6-0.3c-0.2-0.1-0.4-0.1-0.7-0.2c-0.2,0-0.4,0-0.6,0
						c-0.1,0-0.2,0.1-0.2,0.2c0,0,0,0.1,0.1,0.2c0.4,0.7,0.6,1.5,0.7,2.4c0,0.9,0,1.8-0.3,2.7c-0.2,0.9-0.5,1.9-0.9,2.8
						c-0.4,0.9-0.9,1.8-1.4,2.6C72.7,39.8,72.1,40.5,71.5,41.2z"/>
					<path class="st1" d="M76.2,41.4c-0.5,0.6-1.1,1-1.6,1.4c0,0-0.1,0-0.1,0c0,0.1,0,0.1,0,0.2c0.1,0.1,0.2,0.1,0.3,0.1
						c0.5-0.3,1.1-0.8,1.6-1.4c0.5-0.6,1-1.2,1.5-2c0.5-0.7,1-1.5,1.6-2.4c0.5-0.9,1.1-1.7,1.6-2.5c0.5-0.8,1.1-1.7,1.7-2.5
						c0.6-0.8,1.2-1.5,1.8-2.1c0.6-0.6,1.2-1.1,1.9-1.6c0.6-0.4,1.3-0.6,2-0.7c0.5-0.1,0.9,0,1.3,0.1c0.4,0.1,0.6,0.3,0.9,0.5
						c0.1,0.1,0.2,0.2,0.2,0.3c-0.1-0.2-0.3-0.4-0.4-0.6c-0.2-0.2-0.5-0.4-0.9-0.5c-0.4-0.1-0.8-0.2-1.3-0.1c-0.7,0.1-1.3,0.3-2,0.7
						c-0.6,0.4-1.3,0.9-1.9,1.6c-0.6,0.6-1.2,1.3-1.8,2.1c-0.6,0.8-1.2,1.6-1.7,2.5c-0.5,0.8-1.1,1.7-1.6,2.5
						c-0.5,0.8-1,1.6-1.6,2.4C77.2,40.1,76.7,40.8,76.2,41.4z"/>
					<path class="st1" d="M73.3,43.5c0-0.1,0.1-0.3,0.3-0.5c0.5-0.6,0.9-1.4,1.3-2.3c0.4-0.9,0.6-2,0.9-3c0-0.1,0-0.2-0.1-0.3
						c0,0,0,0-0.1,0c0,0,0,0,0,0c-0.2,1.1-0.5,2.1-0.9,3c-0.4,0.9-0.8,1.7-1.3,2.3c-0.1,0.2-0.2,0.3-0.3,0.5c0,0.1,0,0.3,0,0.3
						c0,0.1,0.1,0.1,0.1,0.2c0,0,0,0,0.1,0C73.3,43.7,73.3,43.6,73.3,43.5z"/>
					<path class="st1" d="M68.3,43.4c0-0.2,0.1-0.3,0.2-0.5c0.4-0.6,0.8-1.3,1.2-2.2c0.3-0.9,0.6-1.8,0.8-2.8c0.2-1,0.3-2,0.3-3
						c0-1,0-2-0.2-2.9c-0.1-0.9-0.4-1.7-0.7-2.3c-0.2-0.3-0.4-0.6-0.6-0.8c0.1,0.2,0.2,0.3,0.3,0.5c0.4,0.6,0.6,1.4,0.8,2.3
						c0.1,0.9,0.2,1.8,0.2,2.9c0,1-0.1,2.1-0.3,3c-0.2,1-0.4,1.9-0.8,2.8c-0.3,0.9-0.7,1.6-1.2,2.2c-0.1,0.2-0.2,0.3-0.2,0.5
						c0,0.1,0,0.3,0,0.3c0,0.1,0.1,0.1,0.1,0.2c0,0,0,0,0.1,0C68.3,43.6,68.3,43.5,68.3,43.4z"/>
					<path class="st1" d="M68.2,28.2c0-0.1,0.1-0.1,0.2-0.2c0.2-0.1,0.4-0.3,0.8-0.3c0.3-0.1,0.7-0.1,1.1-0.1c0.4,0,0.7,0.2,1.1,0.4
						c0.1,0.1,0.3,0.2,0.4,0.3c-0.2-0.2-0.4-0.4-0.6-0.6c-0.4-0.2-0.7-0.4-1.1-0.4c-0.4,0-0.7,0-1.1,0.1c-0.3,0.1-0.6,0.2-0.8,0.3
						C68.1,27.9,68,28,68,28.1C68,28.1,68,28.1,68.2,28.2C68.2,28.2,68.2,28.2,68.2,28.2z"/>
				</g>
				<g>
					<path class="st1" d="M85.9,39.9C85.6,40,85.3,40.1,85,40c-0.1,0-0.2,0-0.2-0.1c0,0.1,0.1,0.3,0.4,0.4c0.3,0,0.6,0,0.9-0.1
						c0.3-0.1,0.6-0.3,0.9-0.5c0.3-0.2,0.6-0.4,0.9-0.7c0.3-0.3,0.6-0.6,0.8-0.9c0.1-0.1,0.2-0.2,0.2-0.2c0.1-0.1,0.1-0.2,0.1-0.2
						c0-0.1,0-0.1,0-0.1c0,0,0,0,0,0c0,0,0,0-0.1,0c-0.1,0-0.2,0.1-0.3,0.3c-0.2,0.3-0.5,0.6-0.8,0.9c-0.3,0.3-0.6,0.5-0.9,0.7
						C86.5,39.6,86.2,39.8,85.9,39.9z"/>
					<path class="st1" d="M83.2,40.9c-0.1-0.2-0.1-0.4-0.1-0.7c0-0.3,0.2-0.6,0.4-1.1c0.2-0.5,0.4-0.8,0.6-1.2
						c0.2-0.4,0.3-0.7,0.5-1c0.2-0.3,0.3-0.6,0.5-0.8c0.1-0.3,0.3-0.5,0.4-0.8c0.1-0.2,0.3-0.4,0.4-0.6c0.1-0.1,0.2-0.2,0.3-0.3
						c0.1-0.1,0.2-0.1,0.3-0.1c0.1,0,0.3,0,0.5,0c0.2,0,0.4,0,0.6,0c0,0,0.1,0,0.1,0c0-0.1,0-0.1,0-0.1c0,0,0,0,0-0.1
						c-0.1,0-0.2-0.1-0.3-0.1c-0.2,0-0.4,0-0.6,0c-0.2,0-0.4,0-0.5,0c-0.1,0-0.2,0-0.3,0.1c-0.1,0.1-0.2,0.1-0.3,0.3
						c-0.1,0.1-0.2,0.3-0.4,0.6c-0.1,0.3-0.3,0.5-0.4,0.8c-0.1,0.2-0.3,0.5-0.5,0.8c-0.2,0.3-0.3,0.6-0.5,1
						c-0.2,0.3-0.4,0.7-0.6,1.2c-0.2,0.4-0.3,0.8-0.4,1.1c0,0.3,0,0.5,0.1,0.7C83.1,40.7,83.1,40.8,83.2,40.9L83.2,40.9z"/>
				</g>
				<path class="st1" d="M86.6,33C86.6,33,86.6,33,86.6,33c-0.1-0.2,0-0.3,0-0.5c0.1-0.2,0.2-0.3,0.4-0.5c0.2-0.1,0.4-0.3,0.6-0.4
					c0.2-0.1,0.5-0.1,0.7-0.1c0,0,0.1,0,0.1,0c0.1,0,0.3,0.1,0.4,0.1c0,0,0,0,0.1,0c-0.1-0.1-0.1-0.3-0.3-0.3
					c-0.1-0.1-0.3-0.1-0.4-0.1c0,0-0.1,0-0.1,0c-0.2,0-0.4,0-0.7,0.1c-0.2,0.1-0.4,0.2-0.6,0.4c-0.2,0.1-0.3,0.3-0.4,0.5
					c-0.1,0.2-0.1,0.3,0,0.5c0,0,0,0,0,0C86.5,32.9,86.5,33,86.6,33C86.6,33,86.6,33,86.6,33z"/>
				<g>
					<path class="st1" d="M93.2,41.4c-0.1,0-0.2,0-0.2-0.1c0,0.2,0.1,0.3,0.4,0.4c0.3,0.1,0.6,0,0.9-0.1c0.3-0.1,0.6-0.2,1-0.4
						c0.3-0.2,0.7-0.4,1-0.7c0.3-0.3,0.6-0.5,0.9-0.9c0.1-0.1,0.2-0.2,0.2-0.2c0.1-0.1,0.1-0.2,0.1-0.2c0-0.1,0-0.1,0-0.1
						c0,0,0,0,0,0c0,0,0,0-0.1,0c-0.1,0-0.2,0.1-0.4,0.3c-0.2,0.3-0.5,0.6-0.9,0.9c-0.3,0.3-0.6,0.5-1,0.7c-0.3,0.2-0.7,0.3-1,0.4
						C93.7,41.4,93.4,41.4,93.2,41.4z"/>
					<path class="st1" d="M91.2,41.4c0-0.3,0.2-0.6,0.4-1c0.2-0.3,0.4-0.7,0.7-1c0.3-0.4,0.6-0.8,0.8-1.1c0.2-0.4,0.4-0.7,0.5-0.9
						c0-0.2,0-0.3,0-0.5c0-0.1-0.1-0.1-0.1-0.2c0,0.1,0,0.2,0,0.3c-0.1,0.3-0.2,0.6-0.5,1c-0.2,0.3-0.5,0.7-0.8,1.1
						c-0.3,0.4-0.5,0.7-0.7,1.1c-0.2,0.4-0.4,0.7-0.4,1c0,0.3,0,0.5,0.1,0.7c0,0.1,0.1,0.2,0.2,0.3C91.1,41.9,91.1,41.7,91.2,41.4z"
						/>
					<path class="st1" d="M91.6,36.1c0,0.1,0,0.2,0.1,0.2c0.1,0.1,0.2,0.1,0.3,0c0.4-0.3,0.8-0.5,1.2-0.7c0.4-0.1,0.7-0.2,1.1-0.1
						c0.4,0.1,0.7,0.2,0.9,0.4c0-0.1-0.1-0.2-0.2-0.3c-0.2-0.2-0.5-0.4-0.9-0.5c-0.4-0.1-0.7,0-1.1,0.1c-0.4,0.2-0.8,0.4-1.2,0.7
						C91.7,36.1,91.6,36.1,91.6,36.1z"/>
					<path class="st1" d="M87.1,41.4c0.1-0.3,0.2-0.6,0.4-0.9c0.1-0.3,0.2-0.5,0.4-0.8c0.2-0.4,0.4-0.8,0.6-1.2
						c0.2-0.3,0.4-0.7,0.5-1c0.2-0.3,0.3-0.6,0.5-0.8c0.2-0.3,0.3-0.5,0.5-0.8c0.1-0.2,0.3-0.4,0.4-0.5c0.1-0.1,0.2-0.2,0.4-0.3
						c0.1-0.1,0.3-0.1,0.4-0.1c0.2,0,0.3,0,0.5,0c0,0,0,0,0,0c0-0.1,0.1-0.2,0.1-0.2c0,0-0.1,0-0.2-0.1c0,0-0.1,0-0.1,0
						c-0.2,0-0.4,0-0.5,0c-0.1,0-0.3,0-0.4,0.1c-0.1,0.1-0.3,0.1-0.4,0.3c-0.1,0.1-0.3,0.3-0.4,0.5c-0.1,0.2-0.3,0.5-0.5,0.8
						c-0.2,0.2-0.3,0.5-0.5,0.8c-0.2,0.3-0.3,0.6-0.5,1c-0.2,0.3-0.4,0.7-0.6,1.2c-0.2,0.3-0.3,0.6-0.4,0.8
						c-0.1,0.3-0.2,0.6-0.4,0.9c-0.1,0.2-0.1,0.4-0.1,0.4c0,0,0.1,0.1,0.2,0.1C87,41.6,87.1,41.5,87.1,41.4z"/>
				</g>
				<g>
					<path class="st1" d="M102,39.2C102,39.2,102,39.2,102,39.2c-0.1,0-0.1,0-0.1,0.1c-0.7,1-1.3,1.8-1.8,2.4
						c-0.6,0.6-1.2,0.8-1.7,0.7c-0.3-0.1-0.5-0.2-0.6-0.4c0,0.1,0.1,0.2,0.2,0.3c0.1,0.2,0.4,0.3,0.6,0.4c0.6,0.1,1.2-0.1,1.7-0.7
						c0.5-0.6,1.1-1.4,1.8-2.4C102.1,39.5,102.1,39.3,102,39.2z"/>
					<path class="st1" d="M98.7,44.1C98.7,44.1,98.6,44.1,98.7,44.1c0,0-0.1,0.1-0.1,0.1c-0.6,0.6-1.2,1.1-1.7,1.3
						c-0.5,0.2-1,0.3-1.3,0.2c-0.3-0.1-0.5-0.2-0.6-0.3c0,0.1,0,0.1,0.1,0.2c0.1,0.2,0.4,0.4,0.7,0.5c0.4,0.1,0.8,0,1.3-0.2
						c0.5-0.2,1.1-0.6,1.7-1.3c0.1-0.1,0.1-0.1,0.1-0.2C98.8,44.2,98.7,44.1,98.7,44.1z"/>
					<path class="st1" d="M101.2,43.7C101.2,43.7,101.1,43.7,101.2,43.7c-0.1,0.1-0.1,0.1-0.1,0.2c0,0.1,0.1,0.1,0.2,0.1
						c0.7-0.1,1.4-0.3,2.2-0.6c0.7-0.3,1.4-0.7,2.1-1.3c0.1-0.1,0.2-0.1,0.2-0.2c0.1-0.2,0.2-0.3,0.2-0.3c0,0,0-0.1,0-0.1
						c0,0-0.1,0-0.2,0c-0.1,0-0.3,0.1-0.4,0.2c-0.7,0.6-1.4,1-2.1,1.3C102.6,43.4,101.9,43.6,101.2,43.7z"/>
					<path class="st1" d="M94,45.8c-0.1-0.3-0.1-0.6-0.1-0.9c0.1-0.3,0.2-0.6,0.4-0.9c0.2-0.3,0.5-0.5,1-0.6
						c0.1-0.1,0.3-0.1,0.4-0.1c0.2,0,0.3-0.1,0.5-0.1c0.1,0,0.1-0.1,0.2-0.1c0-0.1,0-0.1,0-0.2c-0.2-0.5-0.2-1.1,0-1.8
						c0.2-0.7,0.6-1.3,1.2-2c0.4-0.4,0.9-0.8,1.4-1s1-0.4,1.5-0.4c0.4,0,0.7,0,1,0.1c0.1,0,0.2,0.1,0.3,0.1c0.4,0.2,0.7,0.4,1,0.7
						c0,0.1,0.1,0.1,0.2,0.1s0.1,0,0.2-0.1c0.1-0.1,0.2-0.2,0.3-0.3c0.1-0.1,0.1-0.1,0.2-0.1c0.1,0,0.2,0,0.3,0c0.1,0,0.3,0,0.4,0
						c0.2,0,0.4,0.1,0.6,0.1c0,0,0.1,0,0.1,0c0,0,0,0,0,0c0-0.1,0-0.1,0-0.1c0-0.1,0-0.1,0-0.1c0,0-0.1-0.1-0.2-0.1c0,0-0.1,0-0.1,0
						c-0.2,0-0.4-0.1-0.6-0.1c-0.2,0-0.3,0-0.4,0c-0.1,0-0.2,0-0.3,0c-0.1,0-0.2,0.1-0.2,0.1c-0.1,0.1-0.2,0.2-0.3,0.3
						c0,0-0.1,0.1-0.2,0.1c-0.1,0-0.1,0-0.2-0.1c-0.3-0.3-0.6-0.6-1-0.7c-0.1,0-0.2-0.1-0.3-0.1c-0.3-0.1-0.7-0.1-1-0.1
						c-0.5,0-1,0.2-1.5,0.4c-0.5,0.2-1,0.6-1.4,1c-0.6,0.6-1,1.3-1.2,2c-0.2,0.7-0.2,1.3,0,1.8c0,0.1,0,0.1,0,0.2
						c0,0.1-0.1,0.1-0.2,0.1c-0.2,0-0.3,0.1-0.5,0.1c-0.1,0-0.3,0.1-0.4,0.1c-0.4,0.2-0.7,0.4-1,0.7c-0.2,0.3-0.4,0.6-0.4,0.9
						c-0.1,0.3,0,0.6,0.1,0.9c0.1,0.2,0.2,0.4,0.3,0.5C94.1,46,94,45.9,94,45.8z"/>
				</g>
				<g>
					<path class="st1" d="M108.5,40.5c0,0-0.1-0.1-0.1-0.1c0,0,0,0.1,0,0.1c-0.1,0.2-0.2,0.4-0.3,0.8c-0.1,0.4-0.2,0.8-0.3,1.2
						c-0.1,0.4-0.2,0.8-0.4,1.2c-0.2,0.4-0.4,0.7-0.8,0.9c-0.3,0.2-0.5,0.2-0.8,0.1c0,0,0,0,0,0c-0.2-0.1-0.4-0.2-0.5-0.3
						c0,0,0,0,0,0.1c0.1,0.3,0.3,0.5,0.6,0.6c0,0,0,0,0,0c0.3,0.1,0.5,0,0.8-0.1c0.3-0.2,0.6-0.5,0.8-0.9c0.2-0.4,0.3-0.8,0.4-1.2
						c0.1-0.4,0.2-0.8,0.3-1.2c0.1-0.3,0.2-0.6,0.3-0.8C108.6,40.7,108.6,40.6,108.5,40.5z"/>
					<path class="st1" d="M108.8,45.2C108.7,45.2,108.7,45.2,108.8,45.2c-0.1,0-0.1,0.1,0,0.2c0,0.1,0.1,0.1,0.2,0.2
						c0.3,0,0.6,0,0.9,0c0.3,0,0.6-0.1,0.9-0.2c0.3-0.1,0.6-0.2,0.9-0.4c0.3-0.2,0.6-0.4,0.8-0.6c0.1-0.1,0.2-0.2,0.2-0.2
						c0.1-0.1,0.1-0.2,0.1-0.2c0-0.1,0-0.1,0-0.1c0,0,0,0,0,0c0,0,0,0-0.1,0c-0.1,0-0.2,0.1-0.4,0.2c-0.2,0.2-0.5,0.4-0.8,0.6
						c-0.3,0.2-0.6,0.3-0.9,0.4c-0.3,0.1-0.6,0.2-0.9,0.2C109.3,45.2,109,45.3,108.8,45.2z"/>
					<path class="st1" d="M104.4,44.6c0-0.4,0-0.8,0.2-1.3c0.2-0.5,0.5-0.9,1-1.3c0.5-0.5,1-0.9,1.3-1.2c0.3-0.3,0.6-0.6,0.9-0.8
						c0.2-0.2,0.4-0.3,0.6-0.4c0.1-0.1,0.3-0.1,0.4-0.1c0.1,0,0.3,0,0.5,0.1c0.3,0.1,0.5,0.2,0.8,0.3c0.3,0.1,0.5,0.2,0.7,0.2
						c0.1,0,0.1,0.1,0.1,0.1c0-0.1,0-0.1,0-0.1c0,0,0-0.1,0-0.1c0,0-0.1-0.1-0.3-0.2c-0.2-0.1-0.4-0.2-0.6-0.2
						c-0.3-0.1-0.5-0.2-0.8-0.3c-0.2-0.1-0.3-0.1-0.5-0.1c-0.1,0-0.3,0-0.4,0.1c-0.2,0.1-0.4,0.2-0.6,0.4c-0.2,0.2-0.5,0.4-0.9,0.8
						c-0.4,0.3-0.8,0.7-1.3,1.2c-0.5,0.4-0.8,0.9-1,1.3c-0.2,0.4-0.3,0.9-0.2,1.3c0,0.3,0.1,0.6,0.3,0.9
						C104.4,45,104.4,44.8,104.4,44.6z"/>
				</g>
				<g>
					<path class="st1" d="M29.8,37.9c0.3-0.8,0.6-1.6,0.9-2.2c0.3-0.5,0.7-0.8,1.1-1c0-0.1,0-0.1,0-0.2c0,0,0,0,0,0c0,0-0.1,0-0.2,0
						c0,0,0,0,0,0c-0.5,0.1-0.8,0.5-1.2,1c-0.4,0.6-0.7,1.3-0.9,2.2c0,0.1-0.1,0.2-0.3,0.2c-0.2,0-0.4-0.1-0.6-0.2
						c0.2,0.2,0.5,0.3,0.9,0.4C29.7,38.1,29.8,38,29.8,37.9z"/>
					<path class="st1" d="M36.6,46c-0.6-0.3-1.2-0.7-1.8-1.1c0.7,0.5,1.4,0.9,2.1,1.3c0.8,0.5,1.7,0.8,2.4,1c0.8,0.2,1.5,0.2,2,0
						c0,0,0.1,0,0.1,0c0-0.1,0-0.2,0-0.2c0,0-0.1,0-0.2,0c0,0-0.1,0-0.1,0c-0.6,0.2-1.3,0.2-2,0C38.2,46.8,37.4,46.5,36.6,46z"/>
					<path class="st1" d="M31.3,41.5c0.1,0,0.2-0.1,0.2-0.1c0.8-0.3,1.6-0.8,2.2-1.4c0.6-0.6,1.1-1.3,1.5-2.1
						c0.4-0.8,0.6-1.5,0.6-2.3c0.1-0.8,0-1.5-0.3-2.1c-0.2-0.5-0.5-0.8-0.9-1.1c0.3,0.2,0.5,0.5,0.7,0.9c0.3,0.6,0.3,1.3,0.3,2.1
						c-0.1,0.8-0.3,1.5-0.6,2.3c-0.4,0.8-0.8,1.5-1.5,2.1c-0.6,0.6-1.4,1.1-2.2,1.4c-0.1,0-0.1,0.1-0.2,0.1c0,0,0,0,0,0
						c0,0,0,0.1,0.1,0.1C31.2,41.5,31.3,41.5,31.3,41.5z"/>
					<path class="st1" d="M34.1,47c-0.6-0.7-1.3-1.4-1.8-2.2c-0.6-0.8-1-1.5-1.4-2.2c0-0.1-0.1-0.1-0.2-0.1c0,0,0,0,0,0
						c0.4,0.6,0.8,1.4,1.4,2.1c0.6,0.8,1.2,1.5,1.8,2.2c0.6,0.6,1.2,1.2,1.9,1.6C35.2,48,34.6,47.5,34.1,47z"/>
					<path class="st1" d="M26.7,39.1C26.8,39.2,26.8,39.2,26.7,39.1c-0.1-0.1-0.2-0.2-0.3-0.4c-0.3-0.5-0.4-1-0.4-1.6
						c0.1-0.7,0.3-1.4,0.8-2.1c0.5-0.7,1.1-1.4,2-2.1c0.9-0.6,2-1.1,3.2-1.5c1.3-0.4,2.5-0.4,3.4-0.1c0.4,0.1,0.8,0.3,1.1,0.5
						c-0.4-0.3-0.8-0.5-1.4-0.7c-0.9-0.3-2.1-0.2-3.4,0.1c-1.3,0.3-2.4,0.9-3.2,1.5c-0.9,0.6-1.5,1.3-2,2.1
						c-0.5,0.7-0.7,1.4-0.8,2.1c-0.1,0.7,0.1,1.2,0.4,1.6C26.3,38.8,26.5,39,26.7,39.1z"/>
					<path class="st1" d="M25.3,49.7c-0.2-0.2-0.4-0.5-0.6-0.8c-0.1-0.3-0.2-0.6-0.3-0.9c0-0.3,0-0.5,0-0.7
						c-0.1-0.1-0.1-0.1-0.1-0.2c0-0.1-0.1-0.1-0.1-0.1c0,0,0,0.1,0,0.1c0,0.2,0,0.4,0,0.7c0,0.3,0.1,0.6,0.3,0.9
						c0.1,0.3,0.3,0.5,0.6,0.8c0.1,0.1,0.3,0.2,0.4,0.3C25.4,49.7,25.3,49.7,25.3,49.7z"/>
					<path class="st1" d="M25.2,47.9c0.2,0.1,0.5,0.2,0.7,0.1c0.2,0,0.5-0.1,0.7-0.3c0.2-0.1,0.4-0.3,0.6-0.6
						c0.1-0.2,0.3-0.4,0.4-0.7c0.1-0.2,0.2-0.5,0.3-0.8c0.1-0.3,0.2-0.6,0.3-0.9c0.1-0.3,0.1-0.6,0.2-0.8c0.1-0.6,0.3-1.4,0.4-2.1
						c0.1-0.8,0.3-1.5,0.5-2.3c0-0.1,0-0.2-0.1-0.2c-0.1-0.1-0.1-0.1-0.2,0c0,0,0,0.1,0,0.1c-0.2,0.8-0.3,1.5-0.5,2.3
						c-0.1,0.8-0.3,1.5-0.4,2.1c-0.1,0.3-0.1,0.5-0.2,0.8c-0.1,0.3-0.2,0.6-0.3,0.9c-0.1,0.3-0.2,0.6-0.3,0.8
						c-0.1,0.2-0.3,0.5-0.4,0.7c-0.2,0.2-0.4,0.4-0.6,0.6c-0.2,0.1-0.5,0.2-0.7,0.3c-0.2,0-0.5,0-0.7-0.1
						C25,47.8,25.1,47.8,25.2,47.9z"/>
				</g>
				<g>
					<path class="st1" d="M43.1,36.4C43.1,36.4,43.1,36.4,43.1,36.4c0.2,0.3,0.2,0.7,0,1.1c-0.3,0.6-0.6,1-1.1,1.4
						c-0.4,0.3-0.8,0.6-1.3,0.7c0,0,0,0,0,0h0c0,0.1,0,0.1,0.1,0.1c0.1,0,0.1,0.1,0.2,0.1c0,0,0,0,0,0c0.4-0.2,0.8-0.4,1.3-0.7
						c0.4-0.3,0.8-0.8,1.1-1.4c0.2-0.5,0.2-0.8,0-1.1C43.3,36.5,43.2,36.4,43.1,36.4z"/>
					<path class="st1" d="M43,41.3c-0.3,0.1-0.5,0.2-0.7,0.3l0,0c-0.1,0-0.3,0-0.4,0c-0.3,0-0.5-0.1-0.8-0.2c0,0,0,0,0,0
						c0.1,0.1,0.2,0.2,0.3,0.2c0.2,0.1,0.5,0.2,0.8,0.2c0.1,0,0.3,0,0.4,0l0,0c0.2,0,0.5-0.1,0.7-0.3c0.4-0.2,0.8-0.5,1.1-0.8
						c0.4-0.3,0.7-0.7,1.1-1.1c0.3-0.4,0.6-0.9,0.8-1.4c0.1-0.1,0.1-0.2,0.2-0.3c0.1-0.2,0.1-0.2,0.1-0.3c0-0.1,0-0.1,0-0.1
						c0,0,0,0,0,0c0,0-0.1,0-0.1,0.1c-0.1,0.1-0.2,0.2-0.3,0.4c-0.2,0.5-0.5,0.9-0.8,1.4c-0.3,0.4-0.7,0.8-1.1,1.1
						C43.8,40.9,43.4,41.1,43,41.3z"/>
					<path class="st1" d="M39.5,42.4c-0.2-0.4-0.4-0.8-0.4-1.4c0-0.6,0-1.2,0.2-1.9c0.1-0.5,0.3-1,0.6-1.5c0.3-0.5,0.6-0.9,0.9-1.3
						c0.3-0.4,0.7-0.6,1.1-0.8c0.1-0.1,0.3-0.1,0.4-0.1c0.3-0.1,0.6,0,0.9,0c0.2,0.1,0.3,0.1,0.5,0.2c-0.2-0.2-0.4-0.3-0.7-0.4
						c-0.3-0.1-0.6-0.1-0.9,0c-0.1,0-0.3,0.1-0.4,0.1c-0.4,0.2-0.8,0.4-1.1,0.8c-0.3,0.4-0.7,0.8-0.9,1.3c-0.3,0.5-0.4,1-0.6,1.5
						c-0.2,0.7-0.3,1.3-0.2,1.9c0,0.6,0.2,1,0.4,1.4c0.2,0.2,0.3,0.4,0.6,0.6C39.7,42.7,39.6,42.5,39.5,42.4z"/>
				</g>
				<g>
					<path class="st1" d="M51.6,36.8c-0.1,0.1-0.2,0.2-0.3,0.4c0,0,0,0,0,0c-0.3,0.5-0.5,1-0.8,1.4c-0.3,0.4-0.6,0.7-0.9,1
						c-0.3,0.3-0.6,0.4-0.8,0.5c-0.1,0-0.2,0.1-0.2,0.1l0,0c-0.2,0-0.4,0-0.5-0.1c0.1,0.1,0.1,0.2,0.2,0.2c0.1,0.1,0.3,0.1,0.5,0.1
						l0,0c0.1,0,0.2,0,0.2-0.1c0.3-0.1,0.5-0.3,0.8-0.5c0.3-0.3,0.6-0.6,0.9-1c0.3-0.4,0.6-0.9,0.8-1.4c0,0,0,0,0,0
						c0.1-0.1,0.1-0.2,0.2-0.3c0-0.1,0-0.2,0-0.3c0-0.1,0-0.1,0-0.1C51.8,36.8,51.7,36.8,51.6,36.8z"/>
					<path class="st1" d="M51.9,30.5C51.9,30.5,51.9,30.5,51.9,30.5c-0.1,0-0.1-0.1-0.1-0.1c0.1,0.1,0,0.3-0.1,0.6
						c-0.1,0.2-0.3,0.5-0.5,0.8c-0.2,0.3-0.5,0.7-0.8,1.1c-0.3,0.4-0.7,0.8-1,1.2c0,0-0.1,0.1-0.1,0.1c0,0,0,0,0,0
						c0,0.1,0,0.1,0.1,0.2s0.1,0.1,0.2,0c0.1,0,0.1,0,0.1-0.1c0.3-0.4,0.7-0.8,1-1.2c0.3-0.4,0.6-0.8,0.8-1.1
						c0.2-0.3,0.4-0.6,0.5-0.8C52.1,30.9,52.1,30.7,51.9,30.5z"/>
					<path class="st1" d="M46.2,40.5c-0.1-0.6-0.1-1.5,0.1-2.5c0.2-1,0.6-2.3,1.3-3.7c0.5-1,0.9-1.9,1.4-2.6
						c0.5-0.7,0.9-1.3,1.4-1.7c0.4-0.4,0.8-0.7,1.2-0.8c0.1,0,0.2-0.1,0.3-0.1c0.2,0,0.4,0,0.5,0.1c-0.1-0.1-0.2-0.2-0.2-0.2
						C52.1,29,51.9,29,51.7,29c-0.1,0-0.2,0-0.3,0.1c-0.4,0.1-0.8,0.4-1.2,0.8c-0.4,0.4-0.9,1-1.4,1.7c-0.5,0.7-0.9,1.6-1.4,2.6
						c-0.7,1.4-1.1,2.7-1.3,3.7c-0.2,1-0.2,1.8-0.1,2.5c0.1,0.6,0.3,1,0.6,1.3c0,0,0.1,0.1,0.1,0.1C46.5,41.4,46.3,41,46.2,40.5z"/>
				</g>
				<g>
					<path class="st1" d="M55.4,38.5c0.5-0.7,0.9-1.6,1.3-2.7c0-0.1,0-0.2,0-0.2c-0.1-0.1-0.2-0.2-0.3-0.3c0,0,0,0,0,0
						c0.1,0.1,0.1,0.2,0,0.2c-0.4,1.1-0.8,2-1.3,2.7c-0.5,0.7-1,1.1-1.6,1.2c-0.3,0-0.5,0-0.7-0.1c0.1,0.1,0.1,0.2,0.2,0.2
						c0.2,0.1,0.4,0.2,0.7,0.1C54.4,39.7,54.9,39.3,55.4,38.5z"/>
					<path class="st1" d="M58.3,39c-0.3,0.2-0.6,0.3-0.8,0.3c-0.1,0-0.2,0-0.3,0c0.1,0.1,0.2,0.3,0.5,0.3c0.3,0,0.5-0.1,0.8-0.3
						c0.3-0.2,0.6-0.4,0.9-0.7c0.3-0.3,0.6-0.6,0.8-0.9c0.3-0.3,0.5-0.7,0.6-1.1c0.1-0.1,0.1-0.2,0.2-0.3c0-0.1,0-0.2,0-0.2
						c0-0.1,0-0.1,0-0.1c0,0,0,0,0,0c0,0,0,0-0.1,0c-0.1,0-0.2,0.1-0.3,0.4c-0.2,0.4-0.4,0.7-0.6,1.1c-0.2,0.3-0.5,0.6-0.8,0.9
						C58.9,38.6,58.6,38.8,58.3,39z"/>
					<path class="st1" d="M51.5,40.1c-0.1-0.4-0.2-1-0.1-1.5c0.1-0.6,0.3-1.2,0.6-1.9c0.3-0.6,0.7-1.1,1.2-1.6
						c0.4-0.4,0.9-0.7,1.4-0.9c0.4-0.2,0.9-0.3,1.3-0.2c0.4,0,0.8,0.2,1.1,0.5c0.1,0,0.1,0.1,0.2,0.1c0.1,0,0.1-0.1,0.2-0.1
						c0.1-0.2,0.2-0.4,0.2-0.5c0.1-0.1,0.1-0.2,0.2-0.2c0.1-0.1,0.2-0.1,0.3-0.1c0.1,0,0.3-0.1,0.5-0.1c0.2,0,0.4-0.1,0.6-0.1
						c0,0,0.1,0,0.1,0c0,0,0,0,0,0c0-0.1,0-0.1,0-0.1c0-0.1,0-0.1,0-0.1c0,0-0.1,0-0.2,0c0,0-0.1,0-0.1,0c-0.2,0-0.4,0.1-0.6,0.1
						c-0.2,0.1-0.3,0.1-0.5,0.1c-0.1,0-0.2,0.1-0.3,0.1c-0.1,0.1-0.1,0.1-0.2,0.2c-0.1,0.1-0.1,0.3-0.2,0.5c0,0.1-0.1,0.1-0.2,0.1
						c-0.1,0-0.1,0-0.2-0.1c-0.3-0.3-0.7-0.5-1.1-0.5c-0.4,0-0.9,0-1.3,0.2c-0.5,0.2-0.9,0.5-1.4,0.9c-0.4,0.4-0.8,0.9-1.2,1.6
						c-0.3,0.6-0.5,1.3-0.6,1.9c-0.1,0.6,0,1.1,0.1,1.5c0.1,0.4,0.4,0.7,0.7,1C51.7,40.6,51.6,40.4,51.5,40.1z"/>
					<path class="st1" d="M55.6,40.1c0-0.1-0.1-0.2-0.2-0.2c0,0,0,0-0.1,0c0.1,0.3,0.2,0.5,0.4,0.7C55.7,40.4,55.6,40.2,55.6,40.1z"
						/>
				</g>
				<g>
					<path class="st1" d="M67.1,38c-0.3,0.3-0.6,0.5-0.9,0.6c-0.3,0.2-0.6,0.2-0.9,0.2c-0.2,0-0.4-0.1-0.5-0.2
						c0.1,0.1,0.1,0.2,0.2,0.2c0.1,0.1,0.3,0.2,0.5,0.2c0.3,0,0.6-0.1,0.9-0.2c0.3-0.2,0.6-0.4,0.9-0.6c0.3-0.2,0.6-0.5,0.8-0.9
						c0.3-0.3,0.5-0.7,0.7-1c0.1-0.1,0.1-0.2,0.2-0.3c0-0.1,0-0.2,0-0.2c0-0.1,0-0.1,0-0.1c0,0,0,0-0.1,0c-0.1,0.1-0.2,0.2-0.3,0.4
						c-0.2,0.4-0.4,0.7-0.7,1C67.7,37.5,67.4,37.8,67.1,38z"/>
					<path class="st1" d="M64.1,35.1c0,0.1,0.1,0.2,0.2,0.2c0.1,0,0.2,0,0.2-0.1c0.4-0.4,0.7-0.9,1.1-1.2c0.3-0.4,0.6-0.6,0.7-0.8
						c0,0,0,0,0,0c0.2-0.2,0.5-0.4,0.8-0.5c0.3-0.1,0.6-0.1,0.9-0.1c0.1,0,0.1,0,0.2,0c0,0,0.1-0.1,0.1-0.1
						c-0.1-0.1-0.3-0.2-0.5-0.2c-0.3,0-0.5,0-0.9,0.1c-0.3,0.1-0.6,0.2-0.8,0.5c0,0,0,0,0,0c-0.1,0.2-0.4,0.4-0.7,0.8
						c-0.3,0.4-0.7,0.8-1.1,1.2C64.2,35.1,64.2,35.1,64.1,35.1C64.1,35.1,64.1,35.1,64.1,35.1z"/>
					<path class="st1" d="M63.1,38.7c0-0.1-0.1-0.1-0.2-0.2c0,0,0,0-0.1,0c0.2,0.6,0.4,1.1,0.7,1.3c0,0,0.1,0.1,0.1,0.1
						C63.4,39.7,63.2,39.3,63.1,38.7z"/>
					<path class="st1" d="M60.2,40.5c0.1-0.1,0.2-0.2,0.3-0.4c0.1-0.2,0.3-0.4,0.6-0.7c0.2-0.3,0.5-0.6,0.7-0.9
						c0.3-0.3,0.6-0.7,0.8-1c0.1-0.1,0.1-0.2,0.1-0.2c-0.1-0.4-0.2-0.8-0.2-1.1c-0.1-0.3-0.1-0.6-0.2-0.9c0-0.1-0.1-0.2-0.2-0.2
						c0,0,0,0,0,0c0,0.3,0.1,0.5,0.2,0.8c0.1,0.3,0.1,0.7,0.2,1.1c0,0.1,0,0.2-0.1,0.2c-0.3,0.3-0.6,0.7-0.8,1
						c-0.3,0.3-0.5,0.6-0.7,0.9c-0.2,0.3-0.4,0.5-0.6,0.7c-0.2,0.2-0.3,0.3-0.3,0.4c-0.2,0.2-0.1,0.3-0.1,0.3c0,0,0,0.1,0.1,0.1
						c0.1,0,0.1,0,0.2,0C60.1,40.6,60.2,40.5,60.2,40.5z"/>
					<path class="st1" d="M60.6,36.9c0.1,0,0.1-0.1,0.2-0.1c0-0.1,0.1-0.1,0.1-0.2c0.3-0.6,0.6-1.2,0.8-1.8c0.2-0.6,0.4-1,0.5-1.2
						c0,0,0,0,0,0c0-0.1,0.1-0.3,0.6-0.4c0.2,0,0.4-0.1,0.5-0.1c0.1,0,0.3,0,0.4,0c0,0,0,0,0,0c0,0,0-0.1,0-0.1
						c-0.1-0.1-0.1-0.1-0.2-0.2c-0.1,0-0.2,0-0.4,0c-0.2,0-0.3,0-0.5,0.1c-0.5,0.1-0.6,0.4-0.6,0.4c0,0,0,0,0,0
						c-0.1,0.2-0.3,0.7-0.5,1.2c-0.2,0.6-0.5,1.2-0.8,1.8c-0.2,0.3-0.2,0.4-0.2,0.5c0,0.1,0,0.1,0,0.1C60.5,37,60.5,37,60.6,36.9z"
						/>
				</g>
			</g>
			<g>
				<path class="st0" d="M54.4,58c0.4,0.4,0.6,1,0.6,1.6c0,1.4-1,2.4-2.4,2.4h-3.9v0.2h4.1c1.4,0,2.4-1,2.4-2.4
					C55.2,59.1,54.9,58.5,54.4,58z"/>
				<path class="st0" d="M55.8,56.5l-0.5-0.3l-0.1,0l0.8,0.5c0.2,0.1,0.4,0.3,0.6,0.5C56.4,56.9,56.1,56.7,55.8,56.5z"/>
				<path class="st0" d="M55.9,49.5c-0.9-1-2.2-1.5-3.8-1.5h-6.3v16.5H46V48.2h6.3C53.8,48.2,55,48.7,55.9,49.5z"/>
				<path class="st0" d="M52.1,55h-3.4v0.2h3.6c1.3,0,2.3-1,2.3-2.3c0-0.7-0.3-1.3-0.8-1.8c0.3,0.4,0.6,0.9,0.6,1.5
					C54.3,54.1,53.4,55,52.1,55z"/>
				<path class="st0" d="M69.7,58c0.4,0.4,0.6,1,0.6,1.6c0,1.4-1,2.4-2.4,2.4H64v0.2h4.1c1.4,0,2.4-1,2.4-2.4
					C70.5,59.1,70.2,58.5,69.7,58z"/>
				<path class="st0" d="M71.3,49.5c-0.9-1-2.2-1.5-3.8-1.5h-6.3v16.5h0.2V48.2h6.3C69.1,48.2,70.4,48.7,71.3,49.5z"/>
				<path class="st0" d="M71.1,56.5l-0.5-0.3l-0.1,0l0.8,0.5c0.2,0.1,0.4,0.3,0.6,0.5C71.7,56.9,71.4,56.7,71.1,56.5z"/>
				<path class="st0" d="M67.4,55H64v0.2h3.6c1.3,0,2.3-1,2.3-2.3c0-0.7-0.3-1.3-0.8-1.8c0.3,0.4,0.6,0.9,0.6,1.5
					C69.7,54.1,68.7,55,67.4,55z"/>
				<path class="st0" d="M84.5,47.9c2.4,0,4.5,0.9,6,2.4c-1.6-1.6-3.8-2.6-6.2-2.6c-4.8,0-8.6,3.8-8.6,8.6c0,2.5,1,4.7,2.6,6.2
					c-1.5-1.5-2.4-3.6-2.4-6C75.9,51.6,79.7,47.9,84.5,47.9z"/>
				<path class="st0" d="M86.1,57.3l-0.2-0.2L84,58.8l3,3.1l-1.3,0.2c-0.5,0.1-0.9,0.1-1.4,0.1c-1.6,0-3.1-0.6-4.1-1.6
					c1.1,1.1,2.6,1.8,4.3,1.8c0.4,0,0.9,0,1.4-0.1l1.3-0.2l-3-3.1L86.1,57.3z"/>
				<polygon class="st0" points="88.9,64 88.9,64 94,69.5 94.1,69.5 				"/>
				<path class="st0" d="M89.4,59.5l-0.5,0.8l0.2,0.2l0.5-0.8c0.6-1,0.8-2.1,0.8-3.2c0-1.8-0.7-3.4-1.8-4.5c1,1.1,1.6,2.5,1.6,4.2
					C90.2,57.4,90,58.5,89.4,59.5z"/>
			</g>
		</g>
	</g>
</g>
</svg>
