<?xml version="1.0" encoding="utf-8"?>
<!-- Generator: Adobe Illustrator 25.4.0, SVG Export Plug-In . SVG Version: 6.00 Build 0)  -->
<svg version="1.1" id="Capa_1" xmlns="http://www.w3.org/2000/svg" xmlns:xlink="http://www.w3.org/1999/xlink" x="0px" y="0px"
	 viewBox="0 0 512 512" style="enable-background:new 0 0 512 512;" xml:space="preserve">
<style type="text/css">
	.st0{fill:#4267B2;}
	.st1{fill:#FFFFFF;}
</style>
<path class="st0" d="M398.5,512h-285C50.82,512,0,461.18,0,398.5v-285C0,50.82,50.82,0,113.5,0h285C461.18,0,512,50.82,512,113.5
	v285C512,461.18,461.18,512,398.5,512z"/>
<path class="st1" d="M353.5,512V314h66.75l10-77.5H353.5v-49.36c0-22.39,6.21-37.64,38.32-37.64h40.68V80.37
	c-7.08-0.94-31.36-3.05-59.62-3.05c-59,0-99.38,36-99.38,102.14v57.04H207V314h66.5v198H353.5z"/>
</svg>
