<?xml version="1.0" encoding="utf-8"?>
<!-- Generator: Adobe Illustrator 25.4.0, SVG Export Plug-In . SVG Version: 6.00 Build 0)  -->
<svg version="1.1" id="Capa_1" xmlns="http://www.w3.org/2000/svg" xmlns:xlink="http://www.w3.org/1999/xlink" x="0px" y="0px"
	 viewBox="0 0 600 288" style="enable-background:new 0 0 600 288;" xml:space="preserve">
<style type="text/css">
	.st0{fill:#161616;}
	.st1{fill:url(#SVGID_1_);}
	.st2{fill:#FFFFFF;}
	.st3{fill:#F15A24;}
	.st4{fill:#013142;}
	.st5{fill:#37D1F4;}
	.st6{fill:#04455B;}
</style>
<g>
	<g>
		<g>
			<path class="st0" d="M147.04,237.73c0,10.59-7.47,19.25-16.61,19.25H31.61c-9.14,0-16.61-8.66-16.61-19.25V34.75
				c0-10.58,7.48-19.24,16.61-19.24h98.82c9.13,0,16.61,8.66,16.61,19.24V237.73z"/>
			
				<linearGradient id="SVGID_1_" gradientUnits="userSpaceOnUse" x1="107.8542" y1="10.1299" x2="162.8799" y2="125.3736" gradientTransform="matrix(1 0 0 1 -6.4453 0)">
				<stop  offset="0" style="stop-color:#535353"/>
				<stop  offset="1" style="stop-color:#161616"/>
			</linearGradient>
			<path class="st1" d="M130.44,15.51H71.88l7.76,24.92h56.49v94.87l10.91,35.06V34.75C147.04,24.17,139.57,15.51,130.44,15.51z"/>
			<rect x="25.91" y="40.43" class="st2" width="110.22" height="191.62"/>
		</g>
		<g>
			<path d="M98.1,28.74H67.34c-1.9,0-3.44-1.73-3.44-3.85c0-2.13,1.54-3.86,3.44-3.86H98.1c1.9,0,3.44,1.73,3.44,3.86
				C101.54,27.01,100,28.74,98.1,28.74z M67.34,22.67c-0.99,0-1.79,0.99-1.79,2.21c0,1.22,0.81,2.21,1.79,2.21H98.1
				c0.99,0,1.79-0.99,1.79-2.21c0-1.22-0.8-2.21-1.79-2.21H67.34z"/>
		</g>
	</g>
	<g>
		<path class="st3" d="M53.11,63.27c-10.93,0-19.8,10.6-19.8,23.67c0,11.24,6.56,20.64,15.35,23.06l-7.69,68.86
			c-0.1,0.64-0.16,1.3-0.16,1.97c0,6.79,5.51,12.3,12.3,12.3c6.79,0,12.3-5.51,12.3-12.3c0-0.67-0.06-1.33-0.16-1.97l-7.69-68.86
			c8.79-2.42,15.35-11.82,15.35-23.06C72.91,73.86,64.05,63.27,53.11,63.27z"/>
		<path class="st3" d="M124.71,63.27c-2.22,0-4.02,1.8-4.02,4.02v8.14v11.81c0,2.14-1.73,3.87-3.87,3.87
			c-2.14,0-3.87-1.73-3.87-3.87V72.02v-4.73c0-2.22-1.8-4.02-4.02-4.02c-2.22,0-4.02,1.8-4.02,4.02v4.73v15.22
			c0,2.14-1.73,3.87-3.87,3.87c-2.14,0-3.87-1.73-3.87-3.87V75.43v-8.14c0-2.22-1.8-4.02-4.02-4.02c-2.22,0-4.02,1.8-4.02,4.02
			v24.13c0,0.11,0.01,0.21,0.02,0.32c0.29,8.97,6.74,16.41,15.32,18.36l-7.67,68.76c-0.1,0.64-0.16,1.3-0.16,1.97
			c0,6.79,5.51,12.3,12.3,12.3c6.79,0,12.3-5.51,12.3-12.3c0-0.67-0.06-1.33-0.16-1.97l-7.67-68.76
			c8.58-1.95,15.03-9.39,15.32-18.36c0.01-0.11,0.02-0.21,0.02-0.32V67.29C128.73,65.07,126.93,63.27,124.71,63.27z"/>
	</g>
	<g>
		<g>
			<path class="st4" d="M207.38,40.03c2.16,3.73,4.56,8.29,7.21,13.68c2.65,5.39,5.34,11.06,8.09,16.99
				c2.74,5.93,5.46,11.96,8.16,18.09c2.7,6.13,5.17,11.79,7.43,16.99c2.25-5.2,4.71-10.86,7.35-16.99
				c2.65-6.13,5.34-12.16,8.09-18.09c2.74-5.93,5.44-11.59,8.09-16.99c2.65-5.39,5.05-9.95,7.21-13.68h16.7
				c0.9,7.45,1.75,15.37,2.55,23.75c0.8,8.38,1.52,16.96,2.17,25.74c0.65,8.78,1.25,17.6,1.8,26.47c0.55,8.88,1.02,17.53,1.42,25.96
				H275.4c-0.4-11.86-0.88-24.07-1.43-36.62c-0.55-12.55-1.37-24.71-2.47-36.47c-1.08,2.26-2.35,4.95-3.82,8.09
				c-1.47,3.14-3.04,6.54-4.71,10.22c-1.67,3.68-3.36,7.48-5.07,11.4c-1.72,3.92-3.38,7.72-5,11.4c-1.62,3.68-3.11,7.11-4.49,10.3
				c-1.37,3.19-2.55,5.91-3.53,8.16h-13.82c-0.98-2.25-2.16-5-3.53-8.24c-1.37-3.24-2.87-6.69-4.49-10.37
				c-1.62-3.68-3.29-7.48-5-11.4c-1.72-3.92-3.41-7.7-5.07-11.32c-1.67-3.63-3.24-7.03-4.71-10.22c-1.47-3.18-2.75-5.86-3.82-8.02
				c-1.1,11.77-1.93,23.92-2.48,36.47c-0.55,12.55-1.02,24.76-1.42,36.62H182.3c0.4-8.43,0.87-17.16,1.42-26.18
				c0.55-9.02,1.15-17.97,1.8-26.84c0.65-8.87,1.37-17.48,2.17-25.81c0.8-8.33,1.65-16.03,2.55-23.09H207.38z"/>
			<path class="st4" d="M309.96,103.86c0-6.76,1-12.7,3.01-17.8c2.01-5.1,4.68-9.34,8.02-12.72c3.33-3.38,7.16-5.93,11.47-7.65
				c4.31-1.71,8.73-2.57,13.24-2.57c10.59,0,18.85,3.29,24.78,9.85c5.93,6.57,8.9,16.38,8.9,29.41c0,0.98-0.03,2.08-0.07,3.31
				c-0.05,1.23-0.12,2.33-0.22,3.31h-50.74c0.49,6.18,2.67,10.96,6.54,14.34c3.87,3.38,9.49,5.07,16.84,5.07
				c4.31,0,8.26-0.39,11.84-1.18c3.58-0.78,6.4-1.62,8.46-2.5l2.35,14.56c-0.98,0.49-2.33,1.01-4.04,1.54
				c-1.72,0.54-3.68,1.03-5.88,1.47c-2.21,0.44-4.58,0.81-7.13,1.1c-2.55,0.29-5.15,0.44-7.79,0.44c-6.77,0-12.65-1.01-17.65-3.01
				c-5-2.01-9.12-4.8-12.35-8.38c-3.24-3.58-5.64-7.8-7.21-12.65C310.74,114.96,309.96,109.64,309.96,103.86z M361.58,95.91
				c0-2.45-0.35-4.78-1.03-6.99c-0.69-2.21-1.69-4.12-3.01-5.74c-1.32-1.62-2.94-2.89-4.85-3.82c-1.91-0.93-4.19-1.4-6.84-1.4
				c-2.75,0-5.15,0.51-7.21,1.54c-2.06,1.03-3.8,2.38-5.22,4.04c-1.42,1.67-2.53,3.58-3.31,5.74c-0.79,2.16-1.32,4.36-1.62,6.62
				H361.58z"/>
			<path class="st4" d="M398.2,67.53c3.43-0.98,7.89-1.91,13.38-2.79c5.49-0.88,11.57-1.32,18.24-1.32c6.27,0,11.52,0.86,15.74,2.57
				c4.21,1.72,7.57,4.12,10.07,7.21c2.5,3.09,4.27,6.82,5.29,11.18c1.03,4.36,1.54,9.14,1.54,14.34v43.24h-17.8V101.5
				c0-4.12-0.27-7.62-0.81-10.52c-0.54-2.89-1.42-5.24-2.65-7.06c-1.23-1.81-2.89-3.14-5-3.97c-2.11-0.83-4.68-1.25-7.72-1.25
				c-2.26,0-4.61,0.15-7.06,0.44c-2.45,0.29-4.27,0.54-5.44,0.74v62.06h-17.8V67.53z"/>
			<path class="st4" d="M547.33,139.59c-3.43,0.88-7.89,1.79-13.38,2.72c-5.49,0.93-11.52,1.4-18.09,1.4
				c-6.18,0-11.35-0.88-15.52-2.65c-4.17-1.77-7.5-4.22-10-7.35c-2.5-3.14-4.29-6.89-5.37-11.25c-1.08-4.36-1.62-9.14-1.62-14.34
				V65.03h17.8v40.3c0,8.24,1.2,14.12,3.6,17.65c2.4,3.53,6.59,5.29,12.57,5.29c2.16,0,4.44-0.1,6.84-0.29
				c2.4-0.2,4.19-0.44,5.37-0.74V65.03h17.8V139.59z"/>
			<polygon class="st4" points="509.29,62.21 517.79,62.21 535.72,40.03 513.73,40.03 			"/>
		</g>
		<g>
			<path class="st4" d="M206.13,229.98c-4.35-9.39-8.54-19.21-12.57-29.46c-4.03-10.26-7.78-20.51-11.26-30.77h12.09
				c1.39,4.06,2.82,8.2,4.27,12.43c1.45,4.23,2.9,8.39,4.36,12.47c1.45,4.08,2.9,8.04,4.36,11.86c1.45,3.82,2.88,7.33,4.27,10.52
				c1.34-3.19,2.73-6.68,4.18-10.47c1.45-3.79,2.92-7.75,4.4-11.86c1.48-4.11,2.95-8.29,4.4-12.52c1.45-4.23,2.85-8.37,4.18-12.43
				h11.74c-3.55,10.26-7.33,20.51-11.34,30.77c-4.01,10.26-8.2,20.08-12.56,29.46H206.13z"/>
			<path class="st4" d="M259.49,171.22c0,1.97-0.64,3.53-1.91,4.69c-1.28,1.16-2.78,1.74-4.52,1.74c-1.8,0-3.33-0.58-4.61-1.74
				c-1.28-1.16-1.91-2.72-1.91-4.69c0-2.03,0.64-3.62,1.91-4.78c1.27-1.16,2.81-1.74,4.61-1.74c1.74,0,3.24,0.58,4.52,1.74
				C258.85,167.6,259.49,169.19,259.49,171.22z M258.36,229.98h-10.52v-45.46h10.52V229.98z"/>
			<path class="st4" d="M297.64,193.99c-0.87-0.29-2.07-0.59-3.61-0.91c-1.54-0.32-3.32-0.48-5.35-0.48c-1.16,0-2.39,0.12-3.69,0.35
				c-1.3,0.23-2.22,0.43-2.74,0.61v36.42h-10.52v-43.28c2.03-0.75,4.56-1.46,7.61-2.13c3.04-0.67,6.42-1,10.13-1
				c0.7,0,1.51,0.04,2.43,0.13c0.93,0.09,1.85,0.2,2.78,0.35c0.93,0.14,1.83,0.32,2.69,0.52c0.87,0.2,1.57,0.39,2.09,0.56
				L297.64,193.99z"/>
			<path class="st4" d="M306.25,172.52l10.52-1.74v13.73h16.17v8.78h-16.17v18.51c0,3.65,0.58,6.26,1.74,7.82
				c1.16,1.57,3.13,2.35,5.91,2.35c1.91,0,3.61-0.2,5.08-0.61c1.48-0.4,2.65-0.78,3.52-1.13l1.74,8.34
				c-1.22,0.52-2.81,1.06-4.78,1.61c-1.97,0.55-4.29,0.83-6.95,0.83c-3.25,0-5.95-0.43-8.13-1.3c-2.17-0.87-3.9-2.13-5.17-3.78
				c-1.28-1.65-2.17-3.65-2.69-6c-0.52-2.35-0.78-5.03-0.78-8.04V172.52z"/>
			<path class="st4" d="M380.39,228.58c-2.03,0.52-4.66,1.06-7.91,1.61c-3.25,0.55-6.81,0.83-10.69,0.83
				c-3.65,0-6.71-0.52-9.17-1.56c-2.46-1.04-4.43-2.49-5.91-4.35c-1.48-1.85-2.54-4.07-3.17-6.65c-0.64-2.58-0.96-5.4-0.96-8.47
				v-25.47h10.52v23.82c0,4.87,0.71,8.34,2.13,10.43c1.42,2.09,3.9,3.13,7.43,3.13c1.27,0,2.62-0.06,4.04-0.17
				c1.42-0.12,2.48-0.26,3.17-0.43v-36.77h10.52V228.58z"/>
			<path class="st4" d="M408.9,183.39c3.48,0,6.4,0.43,8.78,1.3c2.38,0.87,4.27,2.09,5.69,3.65c1.42,1.56,2.43,3.46,3.04,5.69
				c0.61,2.23,0.91,4.68,0.91,7.34v27.55c-1.62,0.35-4.07,0.77-7.34,1.26c-3.27,0.49-6.97,0.74-11.08,0.74
				c-2.72,0-5.22-0.26-7.48-0.78c-2.26-0.52-4.19-1.36-5.78-2.52c-1.59-1.16-2.84-2.67-3.74-4.52c-0.9-1.85-1.35-4.14-1.35-6.87
				c0-2.61,0.51-4.81,1.52-6.61c1.01-1.8,2.39-3.26,4.13-4.39c1.74-1.13,3.75-1.94,6.04-2.43c2.29-0.49,4.68-0.74,7.17-0.74
				c1.16,0,2.38,0.07,3.65,0.22c1.27,0.14,2.64,0.39,4.09,0.74v-1.74c0-1.22-0.15-2.38-0.43-3.48c-0.29-1.1-0.8-2.07-1.52-2.91
				c-0.72-0.84-1.68-1.49-2.87-1.96c-1.19-0.46-2.68-0.7-4.48-0.7c-2.43,0-4.67,0.17-6.69,0.52c-2.03,0.35-3.68,0.75-4.95,1.22
				l-1.3-8.52c1.33-0.46,3.27-0.93,5.82-1.39C403.28,183.62,406,183.39,408.9,183.39z M409.77,222.59c3.24,0,5.71-0.17,7.39-0.52
				v-11.65c-0.58-0.17-1.42-0.35-2.52-0.52c-1.1-0.17-2.32-0.26-3.65-0.26c-1.16,0-2.33,0.09-3.52,0.26
				c-1.19,0.17-2.26,0.49-3.22,0.96c-0.96,0.46-1.72,1.12-2.3,1.96c-0.58,0.84-0.87,1.9-0.87,3.17c0,2.49,0.78,4.22,2.35,5.17
				C404.98,222.11,407.1,222.59,409.77,222.59z"/>
			<path class="st4" d="M456,230.84c-3.13-0.06-5.72-0.41-7.78-1.04c-2.06-0.64-3.69-1.55-4.91-2.74c-1.22-1.19-2.07-2.66-2.56-4.43
				c-0.49-1.77-0.74-3.78-0.74-6.04v-52.32l10.52-1.74v52.06c0,1.28,0.1,2.35,0.3,3.22c0.2,0.87,0.57,1.61,1.09,2.22
				c0.52,0.61,1.23,1.07,2.13,1.39c0.9,0.32,2.04,0.57,3.43,0.74L456,230.84z"/>
			<path class="st4" d="M463.48,207.46c0-4,0.59-7.5,1.78-10.52c1.19-3.01,2.77-5.52,4.74-7.52c1.97-2,4.23-3.51,6.78-4.52
				c2.55-1.01,5.16-1.52,7.82-1.52c6.26,0,11.14,1.94,14.65,5.82c3.51,3.88,5.26,9.68,5.26,17.38c0,0.58-0.01,1.23-0.04,1.96
				c-0.03,0.72-0.07,1.38-0.13,1.96h-29.99c0.29,3.65,1.58,6.47,3.87,8.47c2.29,2,5.61,3,9.95,3c2.55,0,4.88-0.23,7-0.7
				c2.12-0.46,3.78-0.96,5-1.48l1.39,8.61c-0.58,0.29-1.38,0.59-2.39,0.91c-1.02,0.32-2.17,0.61-3.48,0.87
				c-1.3,0.26-2.71,0.48-4.21,0.65c-1.51,0.17-3.04,0.26-4.61,0.26c-4,0-7.48-0.59-10.43-1.78c-2.96-1.19-5.39-2.84-7.3-4.95
				c-1.91-2.11-3.33-4.61-4.26-7.48C463.94,214.03,463.48,210.88,463.48,207.46z M493.99,202.77c0-1.45-0.21-2.82-0.61-4.13
				c-0.4-1.3-1-2.43-1.78-3.39c-0.78-0.96-1.74-1.71-2.87-2.26c-1.13-0.55-2.48-0.83-4.04-0.83c-1.62,0-3.04,0.3-4.26,0.91
				c-1.22,0.61-2.25,1.41-3.09,2.39c-0.84,0.99-1.49,2.12-1.96,3.39c-0.46,1.28-0.78,2.58-0.96,3.91H493.99z"/>
			<path class="st4" d="M527.02,222.41c2.78,0,4.81-0.33,6.08-1c1.27-0.67,1.91-1.81,1.91-3.43c0-1.51-0.68-2.75-2.04-3.74
				c-1.36-0.98-3.61-2.06-6.74-3.22c-1.91-0.7-3.66-1.43-5.26-2.22c-1.59-0.78-2.97-1.7-4.13-2.74c-1.16-1.04-2.07-2.3-2.74-3.78
				c-0.67-1.48-1-3.29-1-5.43c0-4.17,1.53-7.46,4.61-9.86c3.07-2.4,7.24-3.61,12.52-3.61c2.67,0,5.22,0.25,7.65,0.74
				c2.43,0.49,4.26,0.97,5.48,1.43l-1.91,8.52c-1.16-0.52-2.64-1-4.43-1.43c-1.8-0.43-3.88-0.65-6.26-0.65
				c-2.14,0-3.88,0.36-5.21,1.09c-1.33,0.73-2,1.84-2,3.35c0,0.75,0.13,1.42,0.39,2c0.26,0.58,0.71,1.12,1.35,1.61
				c0.64,0.49,1.48,0.99,2.52,1.48c1.04,0.49,2.32,1,3.82,1.52c2.49,0.93,4.61,1.84,6.34,2.74c1.74,0.9,3.17,1.91,4.3,3.04
				c1.13,1.13,1.96,2.42,2.48,3.87c0.52,1.45,0.78,3.19,0.78,5.22c0,4.35-1.61,7.64-4.83,9.86c-3.21,2.23-7.81,3.35-13.78,3.35
				c-4,0-7.21-0.33-9.65-1c-2.43-0.67-4.14-1.2-5.13-1.61l1.82-8.78c1.57,0.64,3.43,1.25,5.61,1.83
				C521.76,222.12,524.23,222.41,527.02,222.41z"/>
		</g>
	</g>
	<path class="st2" d="M61.75,207.1c4.74,3.45,12.95,8.58,16.33,13.28c3.38,4.7,19.1,26.85,25.23,33.43
		c4.99,5.36,16.94,9.71,24.71,15.42h54.9c-2.32-4.88-4.24-9.45-4.79-12.21c-1.69-8.46-2.89-28.45-2.89-28.45s-9.38-38.5-20.94-49.69
		c-11.55-11.2-23.83-11.71-23.83-11.71s-10.25-10.8-20.07-8.97l-7.11-12.54l-15.08-19.6c0,0-7.12-9.59-10.72,0.61
		c0,0-0.13,5.88,1.94,9.75c2.07,3.87,10.73,22.05,10.73,22.05l10.97,29.82l5.86,23.77c0,0-0.33,11.69-8.71,5.74
		c-8.38-5.96-16.7-22.44-33.34-17.72C64.95,200.05,57.02,203.65,61.75,207.1z"/>
	<path class="st5" d="M78.21,141.16l-2.56-4.82c-2.3-4.34-1.83-9.64,1.21-13.5c1.55-1.97,3.88-3.04,6.38-2.94
		c2.47,0.1,4.67,1.33,6.06,3.37l5.69,7.31c0.63-2.2,0.76-4.58,0.28-6.97c-1.61-8.05-9.43-13.27-17.48-11.66
		c-8.05,1.61-13.27,9.43-11.66,17.48C67.36,135.63,72.31,140.16,78.21,141.16z"/>
	<path class="st6" d="M574.42,248.06H178.93c-1.09-5.37-1.71-10.82-1.77-16.29c-0.02-2.09-0.34-4.16-0.93-6.16l-7.8-26.3
		c-2.44-8.24-6.8-15.94-12.6-22.28c-4.4-4.81-9.99-8.46-16.17-10.55l-10.43-3.53l-0.32-0.36c-2.96-3.32-6.81-5.64-11.12-6.72
		l-6.58-1.64l-3.21-5.67c-1.7-3.01-3.64-5.92-5.76-8.64l-12.95-16.64c-1.39-2.04-3.59-3.26-6.06-3.37c-2.5-0.1-4.83,0.97-6.38,2.94
		c-3.04,3.86-3.51,9.16-1.21,13.5l12.14,22.87l11.28,30.17l5.34,23.88c0.39,1.74-0.84,2.64-1.23,2.87c-0.38,0.23-1.74,0.9-3.08-0.25
		c-2.88-2.45-6.27-5.65-10.08-9.52c-13.9-14.11-24.58-10.1-29.71-6.46c-1.75,1.24-2.71,3.27-2.56,5.41c0.14,2.1,1.34,3.93,3.2,4.91
		c7.68,4.02,16.98,14.22,20.63,18.42c1.61,1.86,3.09,3.86,4.4,5.95l5.84,9.35c6.43,10.3,15.73,18.28,26.88,23.09
		c2.79,1.2,6.05,2.97,8.91,5.45h6.86c-3.97-4.95-9.4-8.1-13.81-10c-10.22-4.4-18.74-11.72-24.64-21.16l-5.84-9.35
		c-1.44-2.31-3.08-4.52-4.86-6.57c-4.76-5.48-13.95-15.31-22.07-19.57c-0.44-0.23-0.54-0.64-0.55-0.86
		c-0.01-0.2,0.01-0.69,0.49-1.04c6.73-4.79,14.79-2.75,23.31,5.9c3.91,3.97,7.41,7.28,10.4,9.82c2.53,2.15,6,2.43,8.85,0.72
		c2.86-1.72,4.24-4.94,3.51-8.19l-5.38-24.05l-0.04-0.17l-11.46-30.64l-0.06-0.15l-12.29-23.16c-1.38-2.61-1.1-5.79,0.73-8.11
		c0.55-0.71,1.39-1.09,2.28-1.05c0.9,0.04,1.69,0.49,2.19,1.24l13.11,16.86c1.97,2.54,3.78,5.24,5.36,8.04l12.32,21.81l9.61,22.79
		c0.53,1.26,1.98,1.85,3.24,1.32c1.26-0.53,1.85-1.98,1.32-3.24l-9.67-22.93l-0.06-0.13l-5.9-10.44l2.02,0.5
		c3.35,0.84,6.33,2.64,8.63,5.21l6.8,7.62c0.61,0.68,1.5,0.95,2.33,0.78c0.42-0.08,0.82-0.28,1.16-0.58
		c0.95-0.85,1.08-2.26,0.36-3.28l2.21,0.75c5.39,1.82,10.26,5.01,14.1,9.21c5.29,5.79,9.27,12.83,11.5,20.35l7.8,26.3
		c0.46,1.56,0.71,3.18,0.73,4.81c0.16,13.89,3.53,27.79,9.75,40.21l0.24,0.44h5.65l-1.49-2.7c-0.09-0.18-0.17-0.37-0.26-0.56h388.31
		c5.85,0,10.58-4.74,10.58-10.58S580.26,248.06,574.42,248.06z"/>
</g>
</svg>
